<svg width="231" height="298" viewBox="0 0 231 298" fill="none" xmlns="http://www.w3.org/2000/svg">
<path d="M111.052 233.612C133.744 246.704 133.744 267.928 111.052 281.013C88.3593 294.098 51.5709 294.105 28.8857 281.013C6.19337 267.921 6.19337 246.697 28.8857 233.612C51.5781 220.52 88.3664 220.52 111.052 233.612Z" fill="#E0E0E0"/>
<path d="M141.425 194.186L138.714 192.621C137.856 192.128 137.17 190.927 137.17 189.941V77.3728C137.17 76.3866 137.863 75.186 138.714 74.6929L214.058 31.2292C214.916 30.7362 216.296 30.7362 217.154 31.2292L219.865 32.7943C220.723 33.2874 221.417 34.488 221.417 35.4741V148.042C221.417 149.029 220.723 150.229 219.865 150.722L144.522 194.193C143.663 194.686 142.283 194.686 141.425 194.193V194.186Z" fill="#455A64"/>
<path d="M221.395 35.2169C221.288 34.4165 220.637 34.1235 219.858 34.5737L144.522 78.0445C144.092 78.2947 143.713 78.7091 143.427 79.1951L137.613 75.8435C137.892 75.3575 138.278 74.9359 138.707 74.6858L214.05 31.2221C214.901 30.729 216.289 30.729 217.147 31.2221L219.858 32.7871C220.644 33.2374 221.295 34.2879 221.395 35.2169Z" fill="#455A64"/>
<path d="M144.257 194.307C143.399 194.672 142.197 194.629 141.425 194.186L138.707 192.614C137.856 192.121 137.163 190.92 137.163 189.934V77.3657C137.163 76.8726 137.334 76.3294 137.613 75.8435L143.427 79.1951C143.141 79.681 142.97 80.2313 142.97 80.7244V193.293C142.97 194.179 143.528 194.586 144.257 194.307Z" fill="#263238"/>
<path d="M142.97 80.7244V193.293C142.97 194.279 143.663 194.679 144.522 194.186L219.865 150.715C220.723 150.222 221.417 149.021 221.417 148.035V35.467C221.417 34.4808 220.723 34.0806 219.865 34.5737L144.522 78.0446C143.663 78.5376 142.97 79.7382 142.97 80.7244Z" fill="#37474F"/>
<path d="M125.377 123.631C124.404 123.052 119.891 120.486 119.655 120.351C118.94 119.915 118.683 118.857 119.348 118.142L137.163 99.0475L142.97 102.378L125.162 121.48C124.518 122.166 124.726 123.159 125.377 123.631Z" fill="#455A64"/>
<path d="M142.97 102.385L125.155 121.48C124.261 122.437 125.019 123.988 126.321 123.881L142.963 122.509V102.378L142.97 102.385Z" fill="#37474F"/>
<path d="M182.19 68.0183C190.972 62.9516 198.088 67.0607 198.088 77.187C198.088 87.3133 190.972 99.6406 182.19 104.7C173.407 109.767 166.292 105.658 166.292 95.5244C166.292 85.3909 173.407 73.0707 182.19 68.0112V68.0183Z" fill="#61D0C2"/>
<path d="M182.082 75.9936C184.929 74.3499 187.239 75.6791 187.239 78.9664C187.239 82.2537 184.929 86.2485 182.082 87.8921C179.236 89.5358 176.926 88.2066 176.926 84.9193C176.926 81.632 179.236 77.6372 182.082 75.9936Z" fill="white"/>
<path d="M192.245 93.5162C192.245 88.1137 188.447 85.9269 183.77 88.6282L180.845 90.3147C176.168 93.016 172.37 99.5834 172.37 104.979V106.451C173.214 106.73 174.13 106.873 175.102 106.873C177.234 106.873 179.644 106.172 182.19 104.7C186.002 102.499 189.506 98.926 192.245 94.7597V93.5091V93.5162Z" fill="white"/>
<path d="M172.12 154.867L192.266 143.247C193.125 142.754 193.818 143.154 193.818 144.141V150.622C193.818 151.608 193.125 152.809 192.266 153.302L172.12 164.922C171.262 165.415 170.568 165.015 170.568 164.029V157.547C170.568 156.561 171.262 155.36 172.113 154.867H172.12Z" fill="#36B6A6"/>
<path d="M162.258 140.389L202.114 117.392C203.137 116.799 203.974 117.278 203.974 118.464V120.879C203.974 122.066 203.144 123.502 202.114 124.095L162.258 147.092C161.235 147.685 160.398 147.206 160.398 146.02V143.605C160.398 142.418 161.228 140.982 162.258 140.389Z" fill="#FAFAFA"/>
<path d="M166.921 123.745C167.464 123.431 167.886 123.388 168.187 123.602C168.487 123.824 168.637 124.31 168.637 125.067C168.637 125.825 168.487 126.489 168.187 127.068C167.886 127.64 167.464 128.083 166.921 128.397L165.848 129.019V131.327C165.848 131.406 165.827 131.477 165.791 131.556C165.755 131.635 165.712 131.685 165.662 131.713L165.119 132.028C165.069 132.056 165.026 132.056 164.99 132.02C164.954 131.985 164.933 131.935 164.933 131.856V125.174C164.933 125.096 164.954 125.024 164.99 124.946C165.026 124.867 165.069 124.817 165.119 124.788L166.921 123.745ZM165.848 127.725L166.892 127.125C167.15 126.975 167.35 126.782 167.507 126.539C167.657 126.296 167.736 125.982 167.736 125.596C167.736 125.21 167.657 124.988 167.507 124.924C167.357 124.867 167.15 124.91 166.892 125.053L165.848 125.653V127.725Z" fill="#FAFAFA"/>
<path d="M171.634 121.022C171.705 120.979 171.762 120.979 171.798 121.022C171.834 121.058 171.863 121.129 171.891 121.23L173.536 126.818C173.536 126.818 173.536 126.861 173.536 126.889C173.536 126.968 173.515 127.039 173.479 127.118C173.443 127.197 173.4 127.247 173.35 127.275L172.864 127.554C172.778 127.604 172.714 127.611 172.678 127.575C172.642 127.54 172.621 127.497 172.606 127.447L172.32 126.468L170.196 127.697L169.91 129.012C169.896 129.076 169.874 129.148 169.839 129.226C169.803 129.305 169.739 129.369 169.653 129.426L169.166 129.705C169.116 129.734 169.073 129.734 169.038 129.698C169.002 129.662 168.98 129.612 168.98 129.534C168.98 129.505 168.98 129.483 168.98 129.455L170.625 121.966C170.654 121.83 170.683 121.73 170.718 121.644C170.754 121.565 170.804 121.501 170.883 121.465L171.619 121.037L171.634 121.022ZM172.006 125.353L171.269 122.83L170.532 126.203L172.013 125.353H172.006Z" fill="#FAFAFA"/>
<path d="M176.046 118.378C176.347 118.207 176.611 118.114 176.84 118.107C177.069 118.099 177.262 118.142 177.412 118.242C177.563 118.342 177.677 118.478 177.756 118.657C177.834 118.836 177.877 119.021 177.884 119.214C177.884 119.293 177.87 119.372 177.834 119.443C177.799 119.514 177.749 119.564 177.706 119.593L177.234 119.865C177.155 119.907 177.098 119.922 177.062 119.893C177.026 119.872 176.99 119.829 176.955 119.772C176.89 119.636 176.783 119.543 176.647 119.5C176.511 119.45 176.304 119.5 176.039 119.657C175.925 119.722 175.81 119.807 175.71 119.907C175.603 120.008 175.51 120.115 175.431 120.229C175.353 120.343 175.288 120.472 175.245 120.601C175.203 120.729 175.181 120.858 175.181 120.994C175.181 121.151 175.203 121.272 175.245 121.344C175.288 121.422 175.36 121.465 175.46 121.48C175.56 121.494 175.696 121.48 175.861 121.451C176.025 121.415 176.232 121.372 176.483 121.308C176.754 121.244 176.983 121.215 177.176 121.222C177.37 121.23 177.527 121.287 177.656 121.38C177.777 121.48 177.87 121.623 177.935 121.808C177.999 121.994 178.027 122.23 178.027 122.509C178.027 122.816 177.985 123.13 177.892 123.452C177.806 123.766 177.677 124.074 177.505 124.352C177.341 124.638 177.134 124.903 176.89 125.153C176.647 125.403 176.375 125.617 176.075 125.789C175.825 125.932 175.582 126.025 175.353 126.06C175.124 126.096 174.924 126.082 174.745 126.01C174.566 125.939 174.423 125.803 174.316 125.617C174.208 125.432 174.151 125.189 174.137 124.896C174.137 124.817 174.151 124.738 174.187 124.667C174.223 124.595 174.266 124.545 174.316 124.517L174.788 124.245C174.866 124.202 174.924 124.188 174.959 124.21C175.002 124.231 175.031 124.274 175.06 124.338C175.088 124.41 175.131 124.481 175.174 124.545C175.217 124.61 175.281 124.653 175.353 124.681C175.431 124.71 175.524 124.71 175.639 124.681C175.753 124.66 175.896 124.603 176.068 124.503C176.204 124.424 176.333 124.338 176.461 124.231C176.583 124.131 176.697 124.009 176.79 123.888C176.883 123.759 176.962 123.631 177.019 123.488C177.076 123.345 177.105 123.195 177.105 123.038C177.105 122.887 177.076 122.78 177.012 122.723C176.948 122.659 176.855 122.637 176.726 122.637C176.597 122.637 176.44 122.666 176.254 122.716C176.068 122.759 175.846 122.809 175.603 122.852C175.381 122.902 175.181 122.916 175.017 122.895C174.845 122.88 174.709 122.816 174.602 122.716C174.495 122.616 174.409 122.466 174.359 122.273C174.309 122.08 174.28 121.83 174.28 121.515C174.28 121.201 174.323 120.894 174.416 120.579C174.502 120.265 174.63 119.972 174.788 119.693C174.945 119.414 175.131 119.164 175.353 118.928C175.567 118.693 175.803 118.507 176.054 118.364L176.046 118.378Z" fill="#FAFAFA"/>
<path d="M180.745 115.67C181.045 115.498 181.31 115.405 181.539 115.398C181.768 115.391 181.961 115.434 182.111 115.534C182.261 115.634 182.376 115.77 182.454 115.948C182.533 116.127 182.576 116.313 182.583 116.506C182.583 116.584 182.569 116.663 182.533 116.735C182.497 116.806 182.447 116.856 182.404 116.885L181.932 117.156C181.853 117.199 181.796 117.213 181.76 117.185C181.725 117.163 181.689 117.12 181.653 117.063C181.589 116.927 181.482 116.835 181.346 116.792C181.21 116.742 181.01 116.792 180.738 116.949C180.623 117.013 180.509 117.099 180.409 117.199C180.302 117.299 180.209 117.406 180.13 117.521C180.051 117.635 179.987 117.764 179.944 117.892C179.901 118.021 179.88 118.149 179.88 118.285C179.88 118.442 179.901 118.564 179.944 118.635C179.987 118.714 180.058 118.757 180.159 118.771C180.259 118.786 180.395 118.771 180.559 118.743C180.724 118.707 180.931 118.664 181.181 118.6C181.453 118.535 181.682 118.507 181.875 118.514C182.068 118.521 182.233 118.571 182.354 118.671C182.476 118.771 182.569 118.914 182.633 119.1C182.69 119.286 182.726 119.522 182.726 119.8C182.726 120.108 182.683 120.422 182.59 120.744C182.504 121.058 182.376 121.365 182.204 121.644C182.039 121.93 181.832 122.194 181.589 122.444C181.346 122.695 181.074 122.909 180.774 123.08C180.523 123.223 180.28 123.316 180.051 123.359C179.822 123.395 179.622 123.381 179.443 123.309C179.265 123.238 179.122 123.109 179.014 122.916C178.907 122.73 178.843 122.487 178.835 122.194C178.835 122.116 178.85 122.037 178.886 121.966C178.921 121.894 178.964 121.844 179.014 121.816L179.486 121.544C179.565 121.501 179.622 121.487 179.658 121.508C179.701 121.523 179.729 121.565 179.758 121.637C179.787 121.708 179.83 121.78 179.872 121.844C179.915 121.908 179.98 121.951 180.051 121.98C180.13 122.008 180.223 122.008 180.337 121.98C180.452 121.958 180.595 121.901 180.766 121.801C180.902 121.723 181.031 121.637 181.153 121.53C181.274 121.43 181.389 121.315 181.482 121.187C181.575 121.058 181.653 120.929 181.71 120.786C181.768 120.644 181.796 120.493 181.796 120.336C181.796 120.179 181.768 120.079 181.703 120.015C181.639 119.957 181.546 119.929 181.417 119.929C181.288 119.929 181.131 119.957 180.945 120.008C180.759 120.058 180.538 120.1 180.294 120.143C180.073 120.186 179.872 120.208 179.708 120.186C179.543 120.172 179.4 120.108 179.293 120.008C179.186 119.907 179.1 119.757 179.05 119.564C178.993 119.371 178.971 119.121 178.971 118.807C178.971 118.493 179.014 118.185 179.107 117.871C179.193 117.556 179.322 117.263 179.479 116.985C179.636 116.706 179.822 116.456 180.044 116.22C180.266 115.984 180.495 115.798 180.745 115.655V115.67Z" fill="#FAFAFA"/>
<path d="M185.959 116.563L185.379 119.993C185.358 120.108 185.329 120.208 185.294 120.293C185.258 120.379 185.208 120.443 185.143 120.479L184.6 120.794C184.536 120.829 184.478 120.829 184.443 120.786C184.407 120.744 184.378 120.672 184.364 120.579L183.499 114.548C183.499 114.548 183.499 114.491 183.499 114.469C183.499 114.391 183.52 114.319 183.556 114.24C183.592 114.162 183.634 114.112 183.684 114.083L184.185 113.797C184.228 113.769 184.271 113.769 184.314 113.783C184.357 113.805 184.378 113.855 184.392 113.955L184.957 118.014L185.458 114.962C185.465 114.905 185.487 114.834 185.522 114.741C185.558 114.648 185.615 114.576 185.694 114.526L186.245 114.205C186.323 114.155 186.381 114.162 186.416 114.219C186.452 114.276 186.474 114.326 186.481 114.369L186.981 116.842L187.546 112.132C187.561 112.018 187.589 111.932 187.625 111.868C187.668 111.804 187.711 111.761 187.754 111.732L188.254 111.446C188.304 111.418 188.347 111.418 188.383 111.453C188.419 111.489 188.44 111.539 188.44 111.618C188.44 111.639 188.44 111.668 188.44 111.704L187.582 118.728C187.568 118.843 187.546 118.936 187.503 119.028C187.468 119.114 187.411 119.179 187.346 119.221L186.803 119.536C186.738 119.572 186.681 119.572 186.652 119.529C186.617 119.479 186.588 119.414 186.567 119.321L185.987 116.563H185.959Z" fill="#FAFAFA"/>
<path d="M189.306 113.533C189.32 113.14 189.37 112.747 189.449 112.361C189.527 111.975 189.656 111.603 189.813 111.26C189.971 110.917 190.178 110.596 190.421 110.31C190.664 110.024 190.951 109.781 191.287 109.588C191.616 109.402 191.902 109.31 192.138 109.31C192.381 109.31 192.581 109.395 192.746 109.56C192.91 109.724 193.032 109.946 193.118 110.239C193.203 110.532 193.253 110.867 193.268 111.253C193.268 111.382 193.275 111.525 193.275 111.682C193.275 111.839 193.275 112.004 193.275 112.168C193.275 112.332 193.275 112.504 193.275 112.661C193.275 112.818 193.275 112.968 193.268 113.104C193.253 113.497 193.203 113.89 193.125 114.276C193.039 114.662 192.917 115.034 192.76 115.377C192.603 115.72 192.395 116.034 192.152 116.32C191.909 116.606 191.623 116.842 191.294 117.035C190.965 117.228 190.672 117.321 190.428 117.313C190.185 117.313 189.985 117.228 189.821 117.07C189.656 116.913 189.535 116.684 189.456 116.391C189.37 116.099 189.327 115.763 189.313 115.384C189.313 115.255 189.306 115.112 189.306 114.955C189.306 114.798 189.306 114.634 189.306 114.469C189.306 114.305 189.306 114.133 189.306 113.976C189.306 113.819 189.306 113.669 189.313 113.533H189.306ZM192.352 111.825C192.331 111.339 192.231 111.017 192.038 110.853C191.845 110.689 191.594 110.703 191.28 110.882C190.965 111.06 190.715 111.346 190.521 111.725C190.328 112.111 190.228 112.554 190.207 113.061C190.2 113.326 190.192 113.626 190.192 113.947C190.192 114.269 190.192 114.555 190.207 114.812C190.221 115.298 190.328 115.62 190.521 115.777C190.715 115.934 190.965 115.927 191.28 115.741C191.594 115.563 191.845 115.277 192.038 114.905C192.231 114.526 192.331 114.083 192.352 113.576C192.359 113.311 192.367 113.011 192.367 112.697C192.367 112.382 192.367 112.089 192.352 111.832V111.825Z" fill="#FAFAFA"/>
<path d="M196.4 106.737C196.958 106.415 197.387 106.365 197.68 106.601C197.974 106.837 198.117 107.301 198.117 108.016C198.117 108.523 198.045 108.995 197.895 109.431C197.745 109.874 197.523 110.267 197.23 110.603L198.159 112.625C198.159 112.625 198.181 112.69 198.181 112.725C198.181 112.79 198.167 112.847 198.138 112.911C198.109 112.976 198.074 113.011 198.031 113.04L197.459 113.369C197.373 113.419 197.301 113.426 197.258 113.383C197.215 113.34 197.187 113.297 197.165 113.254L196.286 111.353L195.392 111.868V114.276C195.392 114.355 195.37 114.426 195.335 114.505C195.299 114.583 195.256 114.634 195.206 114.662L194.662 114.977C194.612 115.005 194.569 115.005 194.534 114.969C194.498 114.934 194.476 114.884 194.476 114.805V108.123C194.476 108.045 194.491 107.973 194.534 107.895C194.569 107.816 194.612 107.766 194.662 107.737L196.4 106.737ZM195.392 110.582L196.364 110.017C196.622 109.867 196.822 109.681 196.979 109.46C197.13 109.231 197.208 108.931 197.208 108.538C197.208 108.145 197.13 107.937 196.979 107.895C196.829 107.852 196.622 107.902 196.364 108.052L195.392 108.616V110.582Z" fill="#FAFAFA"/>
<path d="M201.17 103.986C201.499 103.793 201.792 103.693 202.036 103.685C202.279 103.685 202.486 103.75 202.651 103.907C202.815 104.057 202.937 104.286 203.03 104.593C203.116 104.893 203.173 105.258 203.187 105.679C203.208 106.179 203.208 106.687 203.187 107.209C203.166 107.652 203.116 108.08 203.03 108.481C202.944 108.881 202.815 109.252 202.658 109.595C202.493 109.938 202.293 110.246 202.057 110.517C201.814 110.789 201.535 111.017 201.213 111.203L199.518 112.182C199.468 112.211 199.425 112.211 199.389 112.175C199.354 112.139 199.332 112.089 199.332 112.011V105.329C199.332 105.25 199.354 105.179 199.389 105.1C199.425 105.022 199.468 104.972 199.518 104.943L201.177 103.986H201.17ZM202.272 106.208C202.264 105.994 202.236 105.801 202.186 105.643C202.136 105.479 202.071 105.358 201.978 105.265C201.885 105.179 201.771 105.136 201.635 105.136C201.492 105.136 201.328 105.193 201.134 105.308L200.233 105.829V110.489L201.17 109.953C201.356 109.846 201.514 109.717 201.649 109.56C201.785 109.402 201.893 109.231 201.986 109.038C202.071 108.845 202.143 108.645 202.193 108.423C202.243 108.202 202.264 107.98 202.279 107.752C202.293 107.23 202.293 106.723 202.279 106.222L202.272 106.208Z" fill="#FAFAFA"/>
<path d="M102.963 0.271565C104.215 0.55027 105.395 0.993339 106.496 1.60077C107.605 2.20821 108.541 2.95142 109.307 3.83041C110.072 4.70941 110.63 5.70989 110.966 6.83185C111.302 7.95382 111.331 9.16154 111.037 10.4622C110.801 11.527 110.429 12.4131 109.929 13.1206C109.421 13.8281 108.842 14.4426 108.184 14.95C107.526 15.4574 106.832 15.9076 106.11 16.2864C105.38 16.6723 104.694 17.0367 104.05 17.3798C103.399 17.7228 102.813 18.1015 102.291 18.516C101.769 18.9305 101.397 19.4236 101.189 19.9882C101.068 20.2669 100.896 20.4955 100.66 20.6671C100.424 20.8386 100.167 20.8886 99.8735 20.8243L96.8412 20.1525C96.548 20.0882 96.312 19.9238 96.1332 19.6594C95.9544 19.395 95.9115 19.1235 96.0045 18.8376C96.2905 17.8157 96.7053 16.951 97.2703 16.2507C97.8281 15.5503 98.4503 14.95 99.1369 14.4498C99.8235 13.9495 100.532 13.5136 101.268 13.142C102.005 12.7776 102.691 12.4202 103.328 12.0701C103.964 11.7199 104.501 11.3554 104.951 10.9696C105.402 10.5837 105.688 10.1048 105.809 9.54744C106.031 8.53981 105.795 7.6108 105.087 6.77468C104.379 5.93857 103.321 5.35972 101.912 5.04528C99.6518 4.54504 97.7423 5.30969 96.1761 7.33209C95.9759 7.5965 95.7899 7.78231 95.6111 7.89665C95.4323 8.01099 95.1677 8.03243 94.8244 7.95382L91.5919 7.23919C91.3559 7.18917 91.1628 7.06053 91.0269 6.86044C90.891 6.66034 90.8481 6.43166 90.9053 6.16725C91.1342 5.24538 91.6348 4.35924 92.3929 3.50883C93.1509 2.65842 94.0807 1.94379 95.1677 1.36495C96.2619 0.786097 97.4777 0.378759 98.8294 0.150078C100.181 -0.0786033 101.554 -0.0428718 102.963 0.271565ZM99.5374 23.2612C99.8306 23.3255 100.059 23.4898 100.224 23.7471C100.388 24.0044 100.439 24.2831 100.374 24.5761L99.5946 28.0849C99.5303 28.3779 99.3658 28.6066 99.1083 28.7709C98.8508 28.9353 98.5719 28.9853 98.2787 28.921L94.8459 28.1635C94.5527 28.0992 94.3238 27.9348 94.1593 27.6776C93.9948 27.4203 93.9448 27.1416 94.0091 26.8486L94.7887 23.3398C94.853 23.0468 95.0175 22.8181 95.275 22.6537C95.5325 22.4894 95.8114 22.4393 96.1046 22.5037L99.5374 23.2612Z" fill="#C42F3C"/>
<path d="M106.782 33.7948C107.655 33.6519 108.52 33.6304 109.385 33.7376C110.251 33.8448 111.045 34.0806 111.76 34.4451C112.475 34.8167 113.09 35.3169 113.591 35.9458C114.098 36.5747 114.42 37.3465 114.57 38.2541C114.692 38.9973 114.678 39.6619 114.535 40.2479C114.392 40.8339 114.177 41.3698 113.884 41.8701C113.591 42.3632 113.262 42.8277 112.897 43.2565C112.532 43.6852 112.182 44.0926 111.853 44.4856C111.524 44.8715 111.245 45.2646 111.016 45.6648C110.787 46.0649 110.68 46.4723 110.687 46.8868C110.687 47.1012 110.63 47.287 110.523 47.4585C110.415 47.63 110.258 47.73 110.058 47.7658L107.941 48.1088C107.733 48.1445 107.54 48.0945 107.361 47.973C107.183 47.8515 107.083 47.6872 107.068 47.4799C106.99 46.751 107.04 46.0935 107.218 45.5004C107.397 44.9072 107.64 44.3641 107.948 43.8639C108.255 43.3637 108.599 42.9063 108.978 42.4847C109.357 42.063 109.707 41.6557 110.022 41.2698C110.337 40.8839 110.594 40.5123 110.78 40.1478C110.966 39.7834 111.03 39.4046 110.966 39.0187C110.852 38.3184 110.458 37.7824 109.793 37.4251C109.128 37.0678 108.298 36.9677 107.319 37.1321C105.745 37.3894 104.708 38.3684 104.229 40.0621C104.172 40.2836 104.1 40.448 104.014 40.5695C103.929 40.6909 103.764 40.7695 103.528 40.8053L101.275 41.1769C101.111 41.2055 100.954 41.1769 100.818 41.084C100.682 40.9911 100.596 40.8553 100.567 40.6695C100.482 40.0192 100.567 39.326 100.839 38.5828C101.111 37.8467 101.519 37.1464 102.069 36.4961C102.62 35.8458 103.299 35.2741 104.1 34.781C104.908 34.2879 105.802 33.9591 106.782 33.8019V33.7948ZM110.472 49.4023C110.68 49.3665 110.866 49.4166 111.037 49.538C111.209 49.6595 111.309 49.8239 111.345 50.0311L111.745 52.4823C111.781 52.6896 111.731 52.8754 111.61 53.0469C111.488 53.2184 111.324 53.3184 111.116 53.3542L108.72 53.7472C108.513 53.7829 108.327 53.7329 108.155 53.6114C107.984 53.4899 107.876 53.3256 107.848 53.1183L107.447 50.6672C107.412 50.4671 107.462 50.2741 107.583 50.1026C107.705 49.9311 107.869 49.8239 108.077 49.7953L110.472 49.4023Z" fill="#27DEBF"/>
<path d="M106.782 33.7948C107.655 33.6519 108.52 33.6304 109.385 33.7376C110.251 33.8448 111.045 34.0806 111.76 34.4451C112.475 34.8167 113.09 35.3169 113.591 35.9458C114.098 36.5747 114.42 37.3465 114.57 38.2541C114.692 38.9973 114.678 39.6619 114.535 40.2479C114.392 40.8339 114.177 41.3698 113.884 41.8701C113.591 42.3632 113.262 42.8277 112.897 43.2565C112.532 43.6852 112.182 44.0926 111.853 44.4856C111.524 44.8715 111.245 45.2646 111.016 45.6648C110.787 46.0649 110.68 46.4723 110.687 46.8868C110.687 47.1012 110.63 47.287 110.523 47.4585C110.415 47.63 110.258 47.73 110.058 47.7658L107.941 48.1088C107.733 48.1445 107.54 48.0945 107.361 47.973C107.183 47.8515 107.083 47.6872 107.068 47.4799C106.99 46.751 107.04 46.0935 107.218 45.5004C107.397 44.9072 107.64 44.3641 107.948 43.8639C108.255 43.3637 108.599 42.9063 108.978 42.4847C109.357 42.063 109.707 41.6557 110.022 41.2698C110.337 40.8839 110.594 40.5123 110.78 40.1478C110.966 39.7834 111.03 39.4046 110.966 39.0187C110.852 38.3184 110.458 37.7824 109.793 37.4251C109.128 37.0678 108.298 36.9677 107.319 37.1321C105.745 37.3894 104.708 38.3684 104.229 40.0621C104.172 40.2836 104.1 40.448 104.014 40.5695C103.929 40.6909 103.764 40.7695 103.528 40.8053L101.275 41.1769C101.111 41.2055 100.954 41.1769 100.818 41.084C100.682 40.9911 100.596 40.8553 100.567 40.6695C100.482 40.0192 100.567 39.326 100.839 38.5828C101.111 37.8467 101.519 37.1464 102.069 36.4961C102.62 35.8458 103.299 35.2741 104.1 34.781C104.908 34.2879 105.802 33.9591 106.782 33.8019V33.7948ZM110.472 49.4023C110.68 49.3665 110.866 49.4166 111.037 49.538C111.209 49.6595 111.309 49.8239 111.345 50.0311L111.745 52.4823C111.781 52.6896 111.731 52.8754 111.61 53.0469C111.488 53.2184 111.324 53.3184 111.116 53.3542L108.72 53.7472C108.513 53.7829 108.327 53.7329 108.155 53.6114C107.984 53.4899 107.876 53.3256 107.848 53.1183L107.447 50.6672C107.412 50.4671 107.462 50.2741 107.583 50.1026C107.705 49.9311 107.869 49.8239 108.077 49.7953L110.472 49.4023Z" fill="#FD5664"/>
<path d="M127 37.6395C127.2 37.7824 127.322 37.9754 127.365 38.2255C127.407 38.4756 127.357 38.6971 127.214 38.8972L125.512 41.2912C125.369 41.4913 125.176 41.6128 124.926 41.6557C124.676 41.6986 124.454 41.6485 124.254 41.5056L121.915 39.8405C121.715 39.6976 121.593 39.5047 121.55 39.2545C121.507 39.0044 121.557 38.7829 121.7 38.5828L123.403 36.1888C123.546 35.9887 123.739 35.8672 123.989 35.8243C124.239 35.7814 124.461 35.8315 124.661 35.9744L127 37.6395ZM136.905 21.4103C137.756 22.0177 138.507 22.7252 139.143 23.5327C139.78 24.3402 140.252 25.1978 140.552 26.1054C140.853 27.013 140.946 27.942 140.846 28.8924C140.745 29.8429 140.374 30.7648 139.744 31.6509C139.229 32.3798 138.664 32.9301 138.056 33.3017C137.448 33.6733 136.819 33.952 136.161 34.1235C135.503 34.3022 134.838 34.4165 134.173 34.4737C133.501 34.5308 132.871 34.588 132.271 34.638C131.67 34.6881 131.112 34.7881 130.583 34.9382C130.054 35.0811 129.625 35.3384 129.288 35.6957C129.11 35.8672 128.902 35.9815 128.673 36.0387C128.445 36.0959 128.23 36.053 128.03 35.9101L125.963 34.4379C125.763 34.295 125.634 34.0949 125.584 33.8448C125.534 33.5875 125.584 33.3731 125.748 33.1802C126.292 32.5013 126.878 31.9868 127.522 31.6366C128.166 31.2864 128.824 31.0363 129.503 30.8719C130.175 30.7076 130.855 30.6075 131.527 30.5647C132.199 30.5218 132.828 30.4718 133.415 30.4146C134.001 30.3574 134.531 30.2502 134.988 30.1001C135.446 29.9501 135.818 29.6857 136.09 29.3069C136.583 28.6209 136.69 27.8419 136.426 26.9844C136.161 26.1268 135.546 25.355 134.588 24.6761C133.043 23.5827 131.362 23.547 129.539 24.5689C129.303 24.7047 129.102 24.7833 128.931 24.8119C128.759 24.8405 128.559 24.769 128.323 24.6047L126.113 23.0396C125.949 22.9253 125.848 22.7681 125.806 22.5751C125.763 22.3822 125.806 22.1964 125.941 22.0106C126.413 21.3888 127.064 20.8743 127.908 20.4813C128.752 20.0811 129.675 19.8381 130.683 19.7523C131.691 19.6594 132.736 19.7452 133.83 20.0025C134.917 20.2597 135.947 20.7242 136.905 21.4103Z" fill="#27DEBF"/>
<g opacity="0.7">
<path d="M127 37.6395C127.2 37.7824 127.322 37.9754 127.365 38.2255C127.407 38.4756 127.357 38.6971 127.214 38.8972L125.512 41.2912C125.369 41.4913 125.176 41.6128 124.926 41.6557C124.676 41.6986 124.454 41.6485 124.254 41.5056L121.915 39.8405C121.715 39.6976 121.593 39.5047 121.55 39.2545C121.507 39.0044 121.557 38.7829 121.7 38.5828L123.403 36.1888C123.546 35.9887 123.739 35.8672 123.989 35.8243C124.239 35.7814 124.461 35.8315 124.661 35.9744L127 37.6395ZM136.905 21.4103C137.756 22.0177 138.507 22.7252 139.143 23.5327C139.78 24.3402 140.252 25.1978 140.552 26.1054C140.853 27.013 140.946 27.942 140.846 28.8924C140.745 29.8429 140.374 30.7648 139.744 31.6509C139.229 32.3798 138.664 32.9301 138.056 33.3017C137.448 33.6733 136.819 33.952 136.161 34.1235C135.503 34.3022 134.838 34.4165 134.173 34.4737C133.501 34.5308 132.871 34.588 132.271 34.638C131.67 34.6881 131.112 34.7881 130.583 34.9382C130.054 35.0811 129.625 35.3384 129.288 35.6957C129.11 35.8672 128.902 35.9815 128.673 36.0387C128.445 36.0959 128.23 36.053 128.03 35.9101L125.963 34.4379C125.763 34.295 125.634 34.0949 125.584 33.8448C125.534 33.5875 125.584 33.3731 125.748 33.1802C126.292 32.5013 126.878 31.9868 127.522 31.6366C128.166 31.2864 128.824 31.0363 129.503 30.8719C130.175 30.7076 130.855 30.6075 131.527 30.5647C132.199 30.5218 132.828 30.4718 133.415 30.4146C134.001 30.3574 134.531 30.2502 134.988 30.1001C135.446 29.9501 135.818 29.6857 136.09 29.3069C136.583 28.6209 136.69 27.8419 136.426 26.9844C136.161 26.1268 135.546 25.355 134.588 24.6761C133.043 23.5827 131.362 23.547 129.539 24.5689C129.303 24.7047 129.102 24.7833 128.931 24.8119C128.759 24.8405 128.559 24.769 128.323 24.6047L126.113 23.0396C125.949 22.9253 125.848 22.7681 125.806 22.5751C125.763 22.3822 125.806 22.1964 125.941 22.0106C126.413 21.3888 127.064 20.8743 127.908 20.4813C128.752 20.0811 129.675 19.8381 130.683 19.7523C131.691 19.6594 132.736 19.7452 133.83 20.0025C134.917 20.2597 135.947 20.7242 136.905 21.4103Z" fill="#FD5664"/>
</g>
<path d="M73.7484 100.898H48.3384V39.3832C48.3384 28.2564 57.3638 19.2378 68.499 19.2378H70.8448C81.98 19.2378 91.0054 28.2564 91.0054 39.3832V83.6544C91.0054 93.1804 83.2816 100.898 73.7484 100.898Z" fill="#263238"/>
<path d="M45.8638 248.991C45.6564 250.534 45.213 252.342 45.1272 256.709C45.0414 261.397 44.176 263.062 44.0616 266.907C43.9328 271.301 44.6909 272.945 46.4788 275.418C48.2668 277.89 52.9511 280.127 54.925 275.954C56.9275 271.73 56.6486 269.043 56.0192 264.734C55.3613 260.275 55.2826 257.816 54.9036 254.415C54.5674 251.421 54.1669 249.141 54.1669 249.141L45.8638 248.991Z" fill="#263238"/>
<path d="M59.1803 217.854L43.7327 217.576C43.9615 227.881 45.5993 239.322 45.871 248.991C45.9211 250.813 45.8281 263.133 46.5147 266.878C47.5445 272.502 54.2314 271.745 54.589 268.379C54.9465 265.013 54.1598 250.62 54.1813 249.141C54.1241 242.938 57.0277 232.469 58.5582 221.335C58.6297 220.784 59.1231 218.383 59.1947 217.854H59.1803Z" fill="#FFA8A7"/>
<path d="M79.0264 240.973C79.0264 240.973 78.4185 240.644 78.2898 241.294C78.1396 242.066 77.9179 243.667 77.5961 244.932C77.1455 246.697 76.7808 249.605 77.0454 251.042C77.31 252.478 80.6713 254.336 82.8526 255.001C86.0709 255.987 88.2736 257.595 90.0329 259.253C92.1927 261.282 96.8485 263.198 100.024 263.176C103.778 263.148 106.396 261.926 107.633 259.917C108.928 257.824 106.503 257.666 102.219 254.886C101.247 254.258 100.138 253.543 98.8867 252.728C92.0926 248.29 89.6038 245.918 87.68 241.48L79.0336 240.966L79.0264 240.973Z" fill="#263238"/>
<path d="M87.73 238.228C87.6155 235.034 89.804 207.964 89.804 207.964L75.1287 214.646C78.2683 233.383 78.9405 237.807 78.9977 240.873C78.9763 240.944 78.9119 241.201 78.9119 241.659C78.9262 245.296 83.0384 247.261 86.2424 249.691C87.5083 250.649 91.1914 253.479 94.9174 255.351C97.2489 256.523 101.983 256.63 102.57 255.129C98.6649 252.149 92.9865 247.69 89.8826 244.296C88.4022 242.673 87.8372 241.423 87.7228 238.228H87.73Z" fill="#FFA8A7"/>
<path d="M50.0619 117.299C44.4264 129.662 44.4264 139.217 45.3632 154.989C46.2143 169.453 47.5803 182.194 47.5803 182.194C47.3586 184.76 43.7899 189.77 43.3321 201.118C42.903 211.723 44.0616 225.208 44.0616 225.208C44.0616 225.208 52.0787 229.646 58.0074 225.172C58.0074 225.172 63.7288 197.881 65.4023 184.603C66.8684 173.019 69.4073 158.212 69.4073 158.212L74.7925 184.538C74.7925 184.538 72.7471 191.027 72.2679 195.973C71.5099 203.783 75.8796 219.119 75.8796 219.119C75.8796 219.119 84.1612 221.592 89.2175 217.104C89.2175 217.104 91.1127 192.171 91.8136 182.766C92.7576 170.167 90.7694 136.065 89.2175 118.007L50.0691 117.299H50.0619Z" fill="#455A64"/>
<path d="M69.4001 158.212L71.6243 138.395C71.6243 138.395 81.5938 137.066 86.1137 132.821C86.1137 132.821 82.7238 139.031 74.3634 140.239L71.1452 158.683L74.7854 184.546L69.4001 158.219V158.212Z" fill="#263238"/>
<path d="M109.772 112.425C110.394 106.351 110.365 102.306 110.315 101.527C110.101 98.3829 109.536 97.8684 105.137 92.3014C99.1942 84.7764 94.1236 78.016 88.767 71.2913C84.9408 66.489 80.9144 65.7458 76.981 65.9674C74.2347 66.1174 79.5914 79.3166 82.2947 87.1275L97.7066 103.693C98.1786 104.35 98.4003 105.15 98.3217 105.958L97.3776 120.058L101.99 126.225C101.99 126.225 108.978 120.2 109.772 112.432V112.425Z" fill="#FFA8A7"/>
<path d="M62.1268 66.389C59.1445 66.5962 53.7236 67.0679 53.7236 67.0679C50.5983 68.8116 49.8044 70.2408 49.2251 74.3928C48.9748 76.158 50.4195 80.8674 51.6567 87.5634L54.0025 99.9765L53.745 106.137C52.5292 109.896 49.7687 114.562 47.3442 121.444C59.2876 128.104 69.3 128.347 78.3826 127.182C85.3055 126.296 88.9743 124.617 90.1972 122.966C89.9398 116.163 89.4606 111.968 89.3462 104.865C89.2961 101.877 89.4749 98.8688 89.5894 95.4386C94.238 91.6225 94.288 85.2838 91.7563 81.1818C85.8705 71.6558 80.1419 65.6601 76.3515 65.9674L62.134 66.3818L62.1268 66.389Z" fill="#27DEBF"/>
<path d="M62.1268 66.389C59.1445 66.5962 53.7236 67.0679 53.7236 67.0679C50.5983 68.8116 49.8044 70.2408 49.2251 74.3928C48.9748 76.158 50.4195 80.8674 51.6567 87.5634L54.0025 99.9765L53.745 106.137C52.5292 109.896 49.7687 114.562 47.3442 121.444C59.2876 128.104 69.3 128.347 78.3826 127.182C85.3055 126.296 88.9743 124.617 90.1972 122.966C89.9398 116.163 89.4606 111.968 89.3462 104.865C89.2961 101.877 89.4749 98.8688 89.5894 95.4386C94.238 91.6225 94.288 85.2838 91.7563 81.1818C85.8705 71.6558 80.1419 65.6601 76.3515 65.9674L62.134 66.3818L62.1268 66.389Z" fill="#FD5664"/>
<path opacity="0.1" d="M80.3421 95.5458C80.3421 95.5458 74.8853 99.7764 68.6634 97.5682C62.4414 95.36 61.5331 89.9288 61.5331 89.9288C61.5331 89.9288 60.8752 97.0394 68.7206 99.462C76.2942 101.799 80.3421 95.5458 80.3421 95.5458Z" fill="black"/>
<path d="M87.737 46.8725C87.501 57.1917 84.1541 59.7429 82.4734 60.4719C80.7928 61.2079 77.553 60.7577 74.4063 60.236V66.4247C74.4063 66.4247 78.0393 70.2265 77.7676 73.0636C77.4887 75.9078 72.0605 76.2223 67.984 73.4424C65.0089 71.42 62.8849 69.1046 61.9552 68.0041C61.619 67.6039 61.4331 67.1036 61.4331 66.5819V52.0107C61.4331 52.0107 59.7095 53.833 56.6557 51.7463C53.6091 49.6667 53.3517 45.7791 55.2111 43.5852C56.5413 42.0273 59.9098 41.913 61.5332 44.3427C62.4415 46.1221 62.5702 47.9087 63.5858 47.1726C66.3034 45.2146 64.8445 40.7696 68.1342 38.5685C68.1414 38.5685 68.1414 38.5614 68.1485 38.5614C69.1283 38.0325 70.244 37.5323 71.4955 37.1035C77.3528 35.0811 82.4305 33.3803 83.6534 29.3784C85.9634 30.7505 88.0231 34.6952 87.737 46.8725Z" fill="#FFA8A7"/>
<path d="M76.1869 56.0912C76.9374 56.0912 77.5458 55.4833 77.5458 54.7334C77.5458 53.9835 76.9374 53.3756 76.1869 53.3756C75.4365 53.3756 74.8281 53.9835 74.8281 54.7334C74.8281 55.4833 75.4365 56.0912 76.1869 56.0912Z" fill="#B16668"/>
<path d="M75.2858 45.3075C75.3288 46.1221 74.7209 46.8153 73.9342 46.8582C73.1475 46.8939 72.4752 46.2651 72.4323 45.4432C72.3894 44.6286 72.9973 43.9354 73.784 43.8925C74.5707 43.8568 75.2429 44.4856 75.2858 45.3075Z" fill="#263238"/>
<path d="M86.1207 45.4504C86.1564 46.1936 85.6057 46.8225 84.8906 46.8582C84.1039 46.8939 83.5675 46.3937 83.5246 45.5719C83.4888 44.8286 84.0395 44.1998 84.7547 44.164C85.4699 44.1283 86.0849 44.7072 86.1207 45.4504Z" fill="#263238"/>
<path d="M73.4479 48.9806C70.8805 48.9806 68.7993 46.8939 68.7993 44.3356C68.7993 41.1769 72.0605 41.1769 73.4479 41.1769C74.8354 41.1769 78.0965 41.1769 78.0965 44.3356C78.0965 46.9011 76.0082 48.9806 73.4479 48.9806ZM73.4479 41.9058C70.6302 41.9058 69.5288 42.5847 69.5288 44.3356C69.5288 46.4937 71.2881 48.2517 73.4479 48.2517C75.6077 48.2517 77.3671 46.4937 77.3671 44.3356C77.3671 42.5919 76.2657 41.9058 73.4479 41.9058Z" fill="#455A64"/>
<path d="M85.2553 48.9806C82.6878 48.9806 80.6067 46.8939 80.6067 44.3356C80.6067 41.1769 83.8679 41.1769 85.2553 41.1769C86.6427 41.1769 89.9039 41.1769 89.9039 44.3356C89.9039 46.9011 87.8156 48.9806 85.2553 48.9806ZM85.2553 41.9058C82.4375 41.9058 81.3362 42.5847 81.3362 44.3356C81.3362 46.4937 83.0955 48.2517 85.2553 48.2517C87.4151 48.2517 89.1744 46.4937 89.1744 44.3356C89.1744 42.5919 88.0731 41.9058 85.2553 41.9058Z" fill="#455A64"/>
<path d="M78.8188 42.8348L79.0477 51.5176L83.6176 50.1026L78.8188 42.8348Z" fill="#F28F8F"/>
<path d="M74.3992 60.236C71.0808 59.8001 64.2438 57.842 63.1853 55.1407C63.1853 55.1407 63.5429 56.8344 65.5811 58.5852C67.6194 60.3361 74.3992 62.3013 74.3992 62.3013V60.236Z" fill="#F28F8F"/>
<path d="M74.5636 38.6257L71.5312 40.4694C71.0378 39.5976 71.3095 38.4756 72.1463 37.9682C72.983 37.4608 74.0629 37.7538 74.5564 38.6257H74.5636Z" fill="#263238"/>
<path d="M86.9003 40.6767L83.5247 39.4975C83.8179 38.5471 84.812 38.0397 85.7417 38.3613C86.6714 38.6828 87.1935 39.7191 86.9003 40.6695V40.6767Z" fill="#263238"/>
<path d="M77.7319 44.7072C77.5317 44.7072 77.3672 44.5428 77.3672 44.3356C77.3672 43.7424 78.5472 43.3565 79.5985 43.3565C80.6498 43.3565 81.3364 43.7424 81.3364 44.3356C81.3364 44.5357 81.1719 44.7 80.9717 44.7C80.7714 44.7 80.6069 44.5357 80.6069 44.3356C80.5712 44.2712 80.235 44.0926 79.5985 44.0926C78.962 44.0926 78.1324 44.2712 78.0967 44.3427C78.0967 44.5428 77.9322 44.7072 77.7319 44.7072Z" fill="#455A64"/>
<path d="M69.1711 44.3927C69.1711 44.3927 69.1425 44.3927 69.1282 44.3927L60.9538 43.6495C60.8036 43.5137 60.4174 43.1135 59.6165 42.7777L69.214 43.6638C69.4143 43.6852 69.5573 43.871 69.5359 44.0711C69.5144 44.2569 69.3571 44.3999 69.1711 44.3999V44.3927Z" fill="#455A64"/>
<path d="M35.6084 52.9111C38.2831 49.3451 40.1068 46.6438 42.5456 43.5852C43.933 41.8486 44.8198 40.6052 46.15 38.8258C47.0654 37.5966 47.6018 36.5675 48.6245 36.1816C49.7688 35.7529 50.8701 34.9096 51.6068 34.1378C52.136 33.5875 52.5651 32.9515 53.0157 32.3369C54.5461 30.2788 56.3698 28.4422 58.4152 26.8986C60.5678 25.2764 62.9565 24.0401 65.1664 22.4965C66.4823 21.5746 67.8983 20.0453 66.2964 18.6161C65.8172 18.1873 65.2093 17.9372 64.5871 17.8014C60.6966 16.951 57.2995 18.2945 53.4948 19.2664C51.8428 19.688 50.2122 20.2169 48.646 20.9029C47.8879 21.2316 47.1298 21.5961 46.5005 22.1321C45.5207 22.9682 44.9342 24.1616 44.2977 25.2836C42.5885 28.2993 39.0412 30.9577 36.5453 33.3017C33.6202 36.053 31.0027 38.5757 27.6629 41.6128C24.6591 44.3427 21.7198 46.8653 18.9592 49.8453C16.6778 52.3108 17.5074 54.2474 17.8364 54.9121C19.6959 58.7282 21.777 60.1003 24.2587 62.4657C28.564 66.5605 43.3895 78.3519 48.3098 82.2394C49.3611 83.0756 50.1907 84.1546 50.72 85.3838L51.6568 87.5634C57.2638 88.5925 61.0041 80.1813 56.3626 70.055C55.6117 68.4114 54.4174 67.0107 52.9513 65.9459C47.094 61.6796 35.6084 52.9039 35.6084 52.9039V52.9111Z" fill="#FFA8A7"/>
<path d="M35.6084 52.9111C35.6084 52.9111 33.0767 56.2984 28.7571 57.6276C28.7571 57.6276 32.3329 58.5424 37.2318 54.1474L35.6156 52.9111H35.6084Z" fill="#F28F8F"/>
<path d="M108.313 104.972H108.334L107.419 104.186V104.2C107.211 104.036 106.889 103.986 106.475 104.093L96.5481 106.794C95.6255 107.044 94.6315 107.98 94.3168 108.881L87.1722 129.484C87.0077 129.962 87.0721 130.327 87.301 130.534H87.2938L88.2378 131.349V131.334C88.4452 131.506 88.7671 131.563 89.189 131.449L99.1156 128.747C100.038 128.497 101.032 127.561 101.347 126.661C102.749 122.609 107.09 110.11 108.491 106.058C108.67 105.551 108.577 105.172 108.313 104.972Z" fill="#455A64"/>
<path d="M88.0804 130.262L95.225 109.66C95.5397 108.759 96.5337 107.823 97.4563 107.573L107.39 104.872C108.313 104.622 108.806 105.15 108.491 106.051C107.09 110.103 102.749 122.602 101.347 126.654C101.032 127.554 100.038 128.49 99.1155 128.74L89.1889 131.442C88.2664 131.692 87.7729 131.163 88.0876 130.262H88.0804Z" fill="#FD5664"/>
<path d="M96.3836 108.152C95.8686 108.559 95.4252 109.124 95.2321 109.667L88.0804 130.262C87.9231 130.727 87.9731 131.084 88.1805 131.299L87.2937 130.534H87.3009C87.0649 130.32 87.0005 129.955 87.165 129.476L94.3167 108.874C94.4884 108.366 94.896 107.852 95.3752 107.444L96.3836 108.159V108.152Z" fill="#37474F"/>
<path d="M105.588 114.362C104.887 116.463 102.391 117.864 98.2931 118.836C94.1952 119.807 91.9209 124.16 92.5789 125.482C93.244 126.804 99.8665 128.033 102.52 127.654C105.173 127.275 107.841 123.445 108.642 122.259C109.443 121.072 110.379 112.797 109.528 111.661C108.677 110.524 106.882 110.703 106.882 110.703L105.588 114.362Z" fill="#F28F8F"/>
</svg>
