<svg width="23" height="22" viewBox="0 0 23 22" fill="none" xmlns="http://www.w3.org/2000/svg">
<path d="M15.9688 10.1875C15.9688 11.0713 15.7067 11.9353 15.2156 12.6702C14.7246 13.4051 14.0267 13.9779 13.2101 14.3161C12.3936 14.6543 11.495 14.7428 10.6282 14.5704C9.76134 14.398 8.96509 13.9723 8.34012 13.3474C7.71515 12.7224 7.28955 11.9262 7.11712 11.0593C6.94469 10.1925 7.03319 9.29394 7.37142 8.47738C7.70965 7.66083 8.28242 6.9629 9.0173 6.47187C9.75218 5.98084 10.6162 5.71875 11.5 5.71875C12.6848 5.72009 13.8206 6.19134 14.6584 7.0291C15.4962 7.86686 15.9674 9.00273 15.9688 10.1875ZM22.0625 11C22.0625 13.0891 21.443 15.1312 20.2824 16.8682C19.1218 18.6052 17.4721 19.959 15.5421 20.7585C13.6121 21.5579 11.4883 21.7671 9.43936 21.3595C7.39044 20.952 5.50838 19.946 4.03119 18.4688C2.554 16.9916 1.54802 15.1096 1.14046 13.0606C0.732904 11.0117 0.942077 8.88795 1.74153 6.95791C2.54098 5.02786 3.8948 3.37822 5.63179 2.2176C7.36879 1.05698 9.41094 0.4375 11.5 0.4375C14.3004 0.440457 16.9853 1.55424 18.9656 3.53445C20.9458 5.51466 22.0595 8.19956 22.0625 11ZM20.4375 11C20.4362 9.79702 20.1923 8.60667 19.7204 7.50011C19.2485 6.39356 18.5583 5.39354 17.6911 4.55985C16.8238 3.72617 15.7973 3.07595 14.673 2.64807C13.5487 2.22019 12.3497 2.02345 11.1476 2.06961C6.36399 2.25445 2.5493 6.23875 2.5625 11.0254C2.56709 13.2044 3.37076 15.3061 4.82125 16.9323C5.41196 16.0755 6.16233 15.3406 7.03125 14.768C7.10534 14.719 7.19341 14.6957 7.282 14.7016C7.37059 14.7075 7.45482 14.7422 7.5218 14.8005C8.62597 15.7555 10.0371 16.2811 11.497 16.2811C12.9569 16.2811 14.3679 15.7555 15.4721 14.8005C15.5391 14.7422 15.6233 14.7075 15.7119 14.7016C15.8005 14.6957 15.8886 14.719 15.9627 14.768C16.8327 15.3403 17.5841 16.0752 18.1757 16.9323C19.6334 15.3002 20.4386 13.1883 20.4375 11Z" fill="#1DBF73"/>
</svg>
