<svg width="223" height="219" viewBox="0 0 223 219" fill="none" xmlns="http://www.w3.org/2000/svg">
<path d="M100.313 45.688C92.6505 14.0355 58.1273 3.83999 38.3464 27.4971C38.0626 27.8374 37.7789 28.1833 37.4951 28.5348C9.13067 63.652 22.5287 150.189 81.727 172.122C140.92 194.055 202.493 154.005 205.954 118.202C209.414 82.3985 182.105 71.1483 139.72 81.1567C115.777 86.8158 105.088 65.3985 100.318 45.6936L100.313 45.688Z" fill="white"/>
<path d="M160.039 52.9746C152.118 54.4433 149.922 62.4329 156.041 68.1034C158.063 69.9746 160.95 71.534 165.063 72.3109C180.726 75.2708 189.041 67.3776 182.763 57.1424C178.889 50.8255 167.891 51.5173 160.044 52.9746H160.039Z" fill="white"/>
<path d="M16.0765 106.385C11.1525 99.1663 3.94314 100.799 2.49928 109.628C2.02131 112.549 2.20553 116.178 3.57471 120.663C8.79252 137.742 18.8547 142.279 23.739 131.097C26.7512 124.196 20.9558 113.535 16.0765 106.385Z" fill="white"/>
<path d="M123.983 37.0122L124.804 32.232L120.876 31.3531C120.876 30.1793 120.697 28.9999 120.358 27.8545L123.594 25.3765L121.209 21.3334L118.108 23.7037C117.187 22.6376 116.101 21.8154 114.926 21.2654L115.698 16.7857L111.501 15.8501L110.704 20.4658C109.843 20.5226 108.986 20.7097 108.15 21.0329L105.974 17.3414L102.424 20.0576L104.505 23.5903C103.569 24.6393 102.848 25.8755 102.365 27.2137L98.9292 26.4425L98.1077 31.2227L101.663 32.0166C101.722 33.2697 101.971 34.5116 102.419 35.7024L99.3175 38.0726L101.702 42.1157L104.944 39.6377C105.875 40.5619 106.935 41.2537 108.07 41.7074L107.294 46.2097L111.491 47.1453L112.332 42.2631C113.253 42.1497 114.169 41.8775 115.046 41.4465L117.127 44.9792L120.677 42.2631L118.501 38.5773C119.078 37.8174 119.556 36.9896 119.925 36.0993L123.978 37.0066L123.983 37.0122ZM113.447 35.1013C111.655 36.4735 109.215 35.9292 108.011 33.8878C106.806 31.8465 107.284 29.0679 109.076 27.6957C110.868 26.3234 113.308 26.8678 114.513 28.9092C115.718 30.9505 115.24 33.729 113.447 35.1013Z" fill="white"/>
<path d="M100.273 15.0508L100.721 12.4424L98.5756 11.9604C98.5756 11.3197 98.476 10.6732 98.2918 10.0495L100.059 8.69425L98.7548 6.48277L97.062 7.7813C96.5591 7.19725 95.9666 6.74928 95.3244 6.44875L95.7476 3.99911L93.4523 3.48877L93.0192 6.01212C92.5512 6.04047 92.0782 6.14254 91.6251 6.324L90.4352 4.30531L88.4934 5.79097L89.6336 7.71893C89.1207 8.29165 88.7274 8.96643 88.4635 9.69792L86.5865 9.2783L86.1384 11.8867L88.0802 12.3233C88.115 13.0095 88.2495 13.6899 88.4934 14.3363L86.8006 15.6349L88.1051 17.8464L89.8775 16.4911C90.3854 16.9958 90.9679 17.3757 91.5853 17.6195L91.1621 20.0805L93.4573 20.5909L93.9154 17.9201C94.4182 17.8577 94.9211 17.7103 95.3991 17.4721L96.5392 19.4001L98.481 17.9144L97.291 15.9014C97.6097 15.4875 97.8686 15.0338 98.0677 14.5462L100.283 15.0395L100.273 15.0508ZM94.5128 14.0075C93.532 14.756 92.1977 14.4611 91.5405 13.344C90.8833 12.2269 91.1422 10.7073 92.123 9.95876C93.1038 9.21026 94.4381 9.50512 95.0953 10.6222C95.7526 11.7393 95.4937 13.259 94.5128 14.0075Z" fill="white"/>
<path d="M215.563 28.3931L216.011 25.7847L213.865 25.3027C213.865 24.662 213.766 24.0155 213.582 23.3918L215.349 22.0365L214.045 19.8251L212.352 21.1236C211.849 20.5395 211.256 20.0916 210.614 19.791L211.037 17.3414L208.742 16.8311L208.309 19.3544C207.841 19.3828 207.368 19.4848 206.915 19.6663L205.725 17.6476L203.783 19.1333L204.923 21.0612C204.411 21.6339 204.017 22.3087 203.753 23.0402L201.876 22.6206L201.428 25.2347L203.37 25.6713C203.405 26.3574 203.539 27.0379 203.783 27.6843L202.09 28.9828L203.395 31.1943L205.167 29.8391C205.675 30.3438 206.258 30.7237 206.875 30.9675L206.452 33.4285L208.747 33.9388L209.205 31.268C209.708 31.2057 210.211 31.0582 210.689 30.8201L211.829 32.748L213.771 31.2624L212.581 29.2494C212.899 28.8354 213.158 28.3818 213.358 27.8941L215.573 28.3874L215.563 28.3931ZM209.808 27.3441C208.827 28.0926 207.492 27.7977 206.835 26.6806C206.178 25.5636 206.437 24.0439 207.418 23.2954C208.399 22.5469 209.733 22.8417 210.39 23.9588C211.047 25.0759 210.788 26.5956 209.808 27.3441Z" fill="white"/>
<path d="M19.5614 60.8397L20.0095 58.2256L17.8636 57.7436C17.8636 57.1029 17.7641 56.4564 17.5798 55.8327L19.3473 54.4775L18.0429 52.266L16.3501 53.5645C15.8472 52.9805 15.2547 52.5325 14.6125 52.232L15.0357 49.7823L12.7404 49.272L12.3073 51.7953C11.8392 51.8237 11.3663 51.9257 10.9132 52.1072L9.72324 50.0885L7.7815 51.5742L8.92165 53.5021C8.40883 54.0748 8.01551 54.7496 7.75163 55.4811L5.87461 55.0615L5.42651 57.6756L7.36826 58.1122C7.40311 58.7983 7.53754 59.4788 7.7815 60.1252L6.0887 61.4238L7.39315 63.6352L9.16561 62.28C9.67346 62.7847 10.256 63.1646 10.8734 63.4084L10.4502 65.8694L12.7454 66.3797L13.2034 63.709C13.7063 63.6466 14.2092 63.4991 14.6871 63.261L15.8273 65.1889L17.769 63.7033L16.5791 61.6903C16.8977 61.2763 17.1566 60.8227 17.3558 60.335L19.5714 60.8284L19.5614 60.8397ZM13.8059 59.7907C12.8251 60.5392 11.4907 60.2443 10.8335 59.1272C10.1763 58.0101 10.4352 56.4905 11.416 55.742C12.3969 54.9935 13.7312 55.2883 14.3884 56.4054C15.0456 57.5225 14.7867 59.0422 13.8059 59.7907Z" fill="white"/>
<path d="M109.31 190.687C71.3317 190.687 38.1229 188.799 20.1045 185.987C18.2076 185.692 17.635 188.816 19.4722 189.412C31.7699 193.409 49.1809 193.687 60.3036 195.048C79.477 197.401 107.354 196.749 109.31 204.359C111.267 211.969 111.461 220.026 91.9191 218.892C70.7143 217.662 74.2443 204.359 74.2443 204.359C54.5779 204.994 7.77691 199.754 2.59893 190.687C-2.51931 181.722 6.8608 179.653 7.07489 179.602C14.9962 175.048 57.7494 171.572 109.305 171.572C166.492 171.572 212.855 175.853 212.855 181.127C212.855 186.4 166.497 190.682 109.305 190.682L109.31 190.687Z" fill="white"/>
<path d="M59.0389 26.6641C59.8206 18.3058 59.2132 10.2311 55.5587 12.2214C51.9042 14.2174 53.1838 28.093 58.1527 37.2451L59.1883 40.8175C55.6682 34.0753 48.6431 28.3595 45.7604 30.4973C42.8975 32.618 47.8764 35.9409 52.8651 38.107C56.664 39.7571 58.8198 41.8269 59.8206 43.0006L64.7197 59.8816C59.1186 49.2211 48.0257 40.2165 43.4651 43.596C38.9194 46.9643 46.8208 52.2321 54.7372 55.6684C60.7217 58.2655 64.1372 61.526 65.7404 63.3973L66.7162 66.7655C67.254 66.6635 67.7917 66.5614 68.3294 66.448L62.5042 46.3632C62.8975 44.6394 63.6742 42.2805 65.2126 39.5303C68.0854 34.4042 70.3508 28.3595 66.9403 28.5977C63.9829 28.8075 61.598 35.7878 61.4486 42.7115L59.4322 35.7651C59.1285 33.497 58.6954 30.2535 59.0339 26.6471L59.0389 26.6641Z" fill="#174D46"/>
<path d="M211.271 125.869C213.253 117.771 216.44 110.519 219.188 113.91C221.936 117.301 216.25 129.657 208.663 136.075L206.542 138.962C211.998 134.176 220.378 131.817 222.364 135.015C224.341 138.191 218.635 139.183 213.293 139.098C209.225 139.035 206.552 140.056 205.242 140.725L195.22 154.357C203.883 146.804 217.112 143.101 220.253 148.159C223.385 153.2 214.338 154.771 205.864 154.641C199.462 154.538 195.23 156.132 193.134 157.198L191.137 159.914C190.669 159.591 190.201 159.268 189.738 158.944L201.662 142.727C201.857 140.958 201.901 138.44 201.359 135.242C200.348 129.265 200.209 122.699 203.3 124.355C205.984 125.795 205.929 133.286 203.828 139.784L207.951 134.176C208.966 132.191 210.42 129.367 211.276 125.869H211.271Z" fill="#278276"/>
<path d="M187.089 51.4321H33.5818C29.8696 51.4321 26.8604 54.8594 26.8604 59.0872V161.677C26.8604 165.905 29.8696 169.332 33.5818 169.332H187.089C190.801 169.332 193.81 165.905 193.81 161.677V59.0872C193.81 54.8594 190.801 51.4321 187.089 51.4321Z" fill="#2B2B2B"/>
<path d="M186.392 64.3037V156.46C186.392 159.17 184.465 161.371 182.08 161.371H38.5856C37.5799 161.371 36.6538 160.979 35.9219 160.322C35.7277 160.146 35.5435 159.953 35.3792 159.743C34.6921 158.876 34.2739 157.724 34.2739 156.46V64.3037C34.2739 61.5932 36.2057 59.3931 38.5856 59.3931H182.08C182.877 59.3931 183.619 59.6369 184.261 60.0679C184.864 60.4705 185.371 61.0318 185.74 61.7066C186.153 62.4608 186.392 63.351 186.392 64.3037Z" fill="white"/>
<path d="M86.4869 128.466H80.6069V137.107H66.1284V128.466H43.176V117.663L61.9562 86.7026H77.2561L60.5671 115.287H66.5715V107.581H80.6069V115.287H86.4869V128.466Z" fill="#FD5664"/>
<path d="M88.573 111.908C88.573 95.2029 96.9175 85.5518 108.618 85.5518C120.318 85.5518 128.658 95.2029 128.658 111.908C128.658 128.613 120.313 138.264 108.618 138.264C96.9225 138.264 88.573 128.613 88.573 111.908ZM113.671 111.908C113.671 102.189 111.52 99.1609 108.613 99.1609C105.705 99.1609 103.554 102.183 103.554 111.908C103.554 121.633 105.705 124.655 108.613 124.655C111.52 124.655 113.671 121.633 113.671 111.908Z" fill="#FD5664"/>
<path d="M175.19 128.466H169.31V137.107H154.831V128.466H131.879V117.663L150.659 86.7026H165.959L149.27 115.287H155.274V107.581H169.31V115.287H175.19V128.466Z" fill="#FD5664"/>
<path d="M209.404 165.233V165.891C209.404 169.151 208.483 172.174 206.925 174.629C204.545 178.377 200.672 180.815 196.3 180.815H24.3662C19.9948 180.815 16.1213 178.377 13.7414 174.629C12.183 172.174 11.262 169.157 11.262 165.891V165.233H209.404Z" fill="#2B2B2B"/>
<g style="mix-blend-mode:screen">
<path d="M88.1299 165.233V165.38C88.1299 166.56 88.8269 167.518 89.6833 167.518H130.131C130.988 167.518 131.685 166.56 131.685 165.38V165.233H88.1299Z" fill="#2B2B2B"/>
</g>
<path opacity="0.2" d="M186.392 64.3044V69.7423H34.2739V64.3044C34.2739 63.2553 34.5577 62.2913 35.0506 61.4975C35.8273 60.2273 37.1218 59.3994 38.5856 59.3994H182.08C183.544 59.3994 184.839 60.2273 185.61 61.4975C186.103 62.2913 186.387 63.261 186.387 64.3044H186.392Z" fill="#2B2B2B"/>
<path d="M149.648 63.4595H68.9664C68.7602 63.4595 68.593 63.6499 68.593 63.8848V65.7844C68.593 66.0192 68.7602 66.2096 68.9664 66.2096H149.648C149.855 66.2096 150.022 66.0192 150.022 65.7844V63.8848C150.022 63.6499 149.855 63.4595 149.648 63.4595Z" fill="white"/>
<path d="M49.1512 64.8316V65.8522C49.1512 66.1471 48.8723 66.3286 48.6532 66.1811L47.8763 65.6708L47.0995 65.1605C46.8754 65.013 46.8754 64.6501 47.0995 64.5027L47.8763 63.9923L48.6532 63.482C48.8773 63.3346 49.1512 63.516 49.1512 63.8109V64.8316Z" fill="#2B2B2B"/>
<path d="M53.1787 64.8316V65.8522C53.1787 66.1471 53.4576 66.3286 53.6767 66.1811L54.4536 65.6708L55.2305 65.1605C55.4546 65.013 55.4546 64.6501 55.2305 64.5027L54.4536 63.9923L53.6767 63.482C53.4526 63.3346 53.1787 63.516 53.1787 63.8109V64.8316Z" fill="#2B2B2B"/>
<path opacity="0.2" d="M185.615 61.4911H35.0557C35.8324 60.221 37.1269 59.3931 38.5906 59.3931H182.085C183.549 59.3931 184.844 60.221 185.615 61.4911Z" fill="#2B2B2B"/>
<path opacity="0.1" d="M155.254 153.494H63.3652C61.5678 153.494 60.114 151.833 60.114 149.792C60.114 147.745 61.5728 146.089 63.3652 146.089H155.254C157.052 146.089 158.506 147.75 158.506 149.792C158.506 151.839 157.047 153.494 155.254 153.494Z" fill="#2B2B2B"/>
<path d="M167.782 135.82C167.075 137.362 166.383 138.694 165.72 139.84C160.786 148.346 157.122 146.52 155.145 143.9C154.448 142.97 153.946 141.995 153.582 141.093C152.995 139.613 152.785 138.332 152.721 137.776L153.637 138.02C154.722 138.587 156.52 139.369 157.854 139.131C158.023 139.097 158.187 139.052 158.337 138.989C159.532 138.473 161.16 135.791 162.26 133.756C162.982 132.423 163.48 131.357 163.48 131.357L167.772 135.825L167.782 135.82Z" fill="#FFC0AD"/>
<path d="M167.781 135.82C167.074 137.362 166.382 138.695 165.72 139.84C164.321 138.088 163.051 135.514 162.27 133.75C162.992 132.418 163.49 131.352 163.49 131.352L167.781 135.82Z" fill="#FDA084"/>
<path d="M158.924 139.409C158.924 139.409 157.928 142.885 153.587 141.094C152.999 139.614 152.79 138.332 152.726 137.776L153.642 138.02C154.727 138.587 156.524 139.37 157.859 139.132L158.924 139.415V139.409Z" fill="#FDA084"/>
<path d="M199.397 148.272C198.401 154.815 193.731 150.012 193.328 144.903C193.238 143.752 193.213 142.578 193.228 141.45C193.243 140.395 193.293 139.375 193.357 138.456C193.367 138.28 193.382 138.104 193.397 137.934C193.571 135.711 193.815 134.146 193.815 134.146L196.867 129.865C196.867 129.865 197.221 131.062 197.679 132.91C198.097 134.617 198.6 136.874 198.983 139.244C199.098 139.964 199.203 140.69 199.292 141.416C199.591 143.871 199.7 146.31 199.402 148.272H199.397Z" fill="#FFC0AD"/>
<path d="M197.675 132.911C196.769 134.811 195.275 137.323 193.353 138.451C193.363 138.275 193.378 138.1 193.393 137.929C193.567 135.707 193.811 134.142 193.811 134.142L196.864 129.86C196.864 129.86 197.217 131.057 197.675 132.905V132.911Z" fill="#FDA084"/>
<path d="M199.287 141.417C198.182 142.177 194.562 141.82 193.223 141.451C193.238 140.192 193.308 138.985 193.387 137.936L198.979 139.251C199.093 139.971 199.198 140.697 199.287 141.423V141.417Z" fill="#FDA084"/>
<path d="M167.154 119.534C167.154 119.534 162.733 128.425 162.006 131.436C162.006 131.436 165.029 137.186 167.767 137.821L168.783 133.903C168.783 133.903 168.892 121.632 167.154 119.534Z" fill="#626262"/>
<path d="M176.868 114.964L167.159 119.534L171.456 157.435C171.456 157.435 184.824 159.573 191.735 157.435V119.534L182.295 114.726L176.873 114.964H176.868Z" fill="#626262"/>
<path d="M174.881 135.621C176.509 137.555 178.8 139.375 181.986 140.418C182.111 140.458 182.235 140.362 182.25 140.22C182.26 140.106 182.2 139.999 182.101 139.965C178.994 138.944 176.768 137.175 175.18 135.287C175.06 135.145 174.856 135.224 174.826 135.417C174.826 135.417 174.826 135.417 174.826 135.423C174.817 135.496 174.836 135.57 174.881 135.627V135.621Z" fill="#2B2B2B"/>
<path d="M174.966 132.014V132.026C174.966 132.065 174.976 132.099 174.991 132.133C175.1 132.343 175.22 132.57 175.359 132.797C176.126 134.044 177.58 135.694 180.139 136.482C180.154 136.482 180.174 136.488 180.189 136.488C180.273 136.488 180.348 136.426 180.373 136.329C180.403 136.216 180.338 136.097 180.239 136.063C177.485 135.212 176.041 133.324 175.319 131.901C175.22 131.708 174.961 131.787 174.961 132.014H174.966Z" fill="#2B2B2B"/>
<path d="M175.315 122.159C175.32 122.29 175.429 122.386 175.539 122.358C177.854 121.842 179.676 120.668 180.886 119.664C182.559 118.275 183.44 116.937 183.48 116.88C183.545 116.784 183.525 116.648 183.44 116.574C183.355 116.5 183.236 116.523 183.171 116.619C183.141 116.665 180.348 120.849 175.464 121.933C175.369 121.955 175.305 122.046 175.31 122.154L175.315 122.159Z" fill="#2B2B2B"/>
<path d="M160.399 181.553L161.44 175.451H157.879L157.008 181.212C157.008 181.212 158.432 182.267 160.394 181.553H160.399Z" fill="#FFC0AD"/>
<path d="M157.958 181.49C157.958 181.49 157.167 180.311 156.549 180.368C155.932 180.424 151.202 184.808 149.574 185.188C147.941 185.568 148.274 186.934 148.583 187.626C148.892 188.323 161.618 187.189 161.618 187.189C161.618 187.189 161.926 182.868 161.493 181.553C161.065 180.237 159.238 181.785 157.958 181.485V181.49Z" fill="#174D46"/>
<path d="M155.355 184.54C155.415 184.557 155.48 184.552 155.534 184.512C155.644 184.438 155.679 184.279 155.614 184.155C155.594 184.115 155.081 183.134 154.409 182.754C153.508 182.249 152.82 182.833 152.79 182.862C152.691 182.947 152.671 183.111 152.746 183.225C152.82 183.338 152.965 183.361 153.064 183.276C153.084 183.259 153.562 182.867 154.205 183.225C154.758 183.531 155.211 184.41 155.216 184.421C155.246 184.483 155.295 184.523 155.35 184.54H155.355Z" fill="white"/>
<path d="M156.027 183.797C156.087 183.815 156.152 183.809 156.207 183.769C156.316 183.695 156.351 183.537 156.286 183.412C156.266 183.372 155.753 182.391 155.081 182.011C154.18 181.507 153.492 182.091 153.463 182.119C153.363 182.204 153.343 182.369 153.418 182.482C153.492 182.595 153.637 182.618 153.736 182.533C153.756 182.516 154.239 182.125 154.877 182.482C155.43 182.788 155.883 183.667 155.888 183.678C155.918 183.741 155.968 183.78 156.022 183.797H156.027Z" fill="white"/>
<path d="M154.434 185.147C154.494 185.164 154.559 185.159 154.614 185.125C154.723 185.051 154.758 184.892 154.693 184.767C154.673 184.728 154.16 183.747 153.488 183.367C152.587 182.862 151.899 183.446 151.87 183.474C151.77 183.56 151.75 183.724 151.825 183.837C151.899 183.951 152.044 183.973 152.143 183.888C152.163 183.871 152.646 183.48 153.284 183.837C153.837 184.144 154.29 185.023 154.295 185.034C154.325 185.096 154.374 185.136 154.429 185.153L154.434 185.147Z" fill="white"/>
<path d="M176.544 153.637C176.544 153.637 170.455 136.415 166.666 137.09C160.806 138.139 156.883 158.644 157.366 177.77L161.389 178.031C161.389 178.031 165.89 160.016 166.696 155.292C166.696 155.292 169.798 167.552 176.783 165.845C181.956 164.58 178.586 158.553 176.539 153.631L176.544 153.637Z" fill="#FD5664"/>
<path d="M160.911 177.242L160.418 177.14C160.428 177.072 161.498 170.37 162.798 163.594C165.442 149.775 166.437 149.128 166.766 148.913C167.04 148.737 167.264 148.782 167.403 148.85C168.065 149.179 168.399 150.79 168.902 153.234C169.713 157.18 170.829 162.584 173.906 164.847L173.632 165.329C170.386 162.941 169.245 157.407 168.409 153.364C168.011 151.425 167.632 149.588 167.199 149.378C167.174 149.366 167.124 149.338 167.015 149.412C165.656 150.296 162.624 166.542 160.916 177.242H160.911Z" fill="#D84E5A"/>
<path d="M156.968 176.364L161.897 176.834L161.991 176.846L161.722 178.706L156.878 178.314L156.968 176.364Z" fill="#D84E5A"/>
<path d="M174.986 165.935C174.986 165.935 182.066 167.483 191.456 165.561C190.684 161.144 188.927 157.674 186.064 154.589L173.403 155.632C172.606 159.035 173.184 162.471 174.986 165.935Z" fill="#FD5664"/>
<path d="M172.965 180.185C172.965 180.185 171.287 179.766 170.829 179.8C170.371 179.834 167.453 183.9 166.428 184.183C164.57 184.693 164.695 188.028 165.845 188.135C169.161 188.447 174.747 186.57 174.747 186.57C174.747 186.57 175.101 182.266 174.822 180.934C174.543 179.601 173.901 180.531 172.965 180.18V180.185Z" fill="#174D46"/>
<path d="M173.951 180.475L175.186 174.991H171.63L170.833 180.282C170.833 180.282 171.994 181.189 173.956 180.475H173.951Z" fill="#FFC0AD"/>
<path d="M170.376 183.979C170.436 183.99 170.501 183.979 170.551 183.933C170.65 183.848 170.675 183.684 170.6 183.571C170.576 183.531 169.978 182.618 169.271 182.329C168.33 181.937 167.697 182.601 167.672 182.629C167.583 182.726 167.578 182.896 167.662 182.998C167.747 183.1 167.891 183.106 167.986 183.009C168.001 182.992 168.444 182.539 169.116 182.816C169.694 183.055 170.227 183.871 170.232 183.882C170.267 183.939 170.322 183.973 170.376 183.985V183.979Z" fill="white"/>
<path d="M170.978 183.157C171.038 183.168 171.103 183.157 171.153 183.111C171.252 183.026 171.277 182.862 171.203 182.748C171.178 182.709 170.58 181.796 169.873 181.506C168.932 181.115 168.299 181.779 168.274 181.807C168.185 181.903 168.18 182.068 168.264 182.176C168.349 182.278 168.498 182.283 168.588 182.187C168.603 182.17 169.046 181.716 169.719 181.994C170.296 182.232 170.829 183.049 170.834 183.06C170.869 183.117 170.924 183.151 170.978 183.162V183.157Z" fill="white"/>
<path d="M169.52 184.693C169.58 184.705 169.644 184.693 169.694 184.648C169.794 184.563 169.819 184.398 169.744 184.285C169.719 184.245 169.122 183.332 168.414 183.043C167.473 182.652 166.841 183.315 166.816 183.344C166.726 183.44 166.721 183.61 166.806 183.712C166.891 183.814 167.04 183.82 167.13 183.724C167.145 183.707 167.588 183.253 168.26 183.531C168.838 183.769 169.371 184.585 169.376 184.597C169.41 184.653 169.465 184.688 169.52 184.699V184.693Z" fill="white"/>
<path d="M190.59 165.845C189.688 166.066 188.857 166.055 188.085 165.868C187.831 165.805 187.587 165.726 187.348 165.63C182.633 163.724 180.502 155.292 180.502 155.292C179.696 160.016 175.026 178.019 175.026 178.019L174.299 177.912L173.796 177.838L171.043 177.424C170.5 158.91 174.612 138.145 180.473 137.096C184.256 136.415 190.351 153.642 190.351 153.642C192.392 158.558 195.768 164.592 190.595 165.856L190.59 165.845Z" fill="#FD5664"/>
<path d="M188.085 165.868C187.831 165.805 187.587 165.726 187.348 165.63C185.626 162.465 184.725 158.042 183.998 154.481C183.42 151.646 182.877 148.97 182.165 148.516C182.056 148.448 181.951 148.437 181.827 148.482C181.219 148.709 179.791 151 177.037 163.809C175.723 169.911 174.637 175.995 174.304 177.917C174.234 178.309 174.194 178.53 174.194 178.541L173.701 178.433C173.701 178.433 173.736 178.218 173.801 177.844C174.13 175.961 175.225 169.831 176.549 163.679C179.781 148.652 181.205 148.119 181.673 147.943C181.936 147.847 182.185 147.875 182.419 148.023C183.325 148.607 183.818 151.017 184.496 154.362C185.257 158.094 186.208 162.794 188.095 165.879L188.085 165.868Z" fill="#D84E5A"/>
<path d="M170.714 176.114L175.579 177.124L175.673 177.146L175.245 178.966L170.455 178.048L170.714 176.114Z" fill="#D84E5A"/>
<path d="M191.73 119.534L198.028 129.922C198.028 129.922 195.23 135.927 192.492 136.557C192.492 136.557 189.639 130.881 189.305 127.983C188.972 125.086 190.749 119.789 191.735 119.54L191.73 119.534Z" fill="#626262"/>
<path d="M173.671 103.459C173.671 107.491 175.852 110.269 179.392 110.269C182.932 110.269 185.397 107.281 185.397 103.249C185.397 99.2175 183.3 96.1611 179.761 96.1611C175.514 96.1611 173.671 99.4216 173.671 103.453V103.459Z" fill="#2B2B2B"/>
<path d="M173.881 101.236C173.881 101.236 171.242 98.2647 172.228 96.8641C173.213 95.4635 174.498 96.8017 174.891 95.4635C175.285 94.1253 175.439 92.4071 177.037 93.1046C178.64 93.8077 178.71 94.9531 180.244 93.9325C181.772 92.9118 181.438 94.6356 182.778 95.3954C184.122 96.1609 185.058 96.0305 184.839 97.4992C184.62 98.9622 186.128 99.2684 185.511 100.884C184.894 102.506 184.177 101.684 184.177 101.684L173.881 101.23V101.236Z" fill="#2B2B2B"/>
<path d="M174.469 105.194C174.469 105.194 173.483 103.702 172.756 104.933C172.024 106.169 173.059 109.815 174.847 108.925L174.469 105.194Z" fill="#FDA084"/>
<path d="M174.454 107.802C174.389 107.802 174.329 107.751 174.309 107.678C174.03 106.549 173.01 106.096 172.995 106.09C172.915 106.056 172.875 105.954 172.905 105.869C172.935 105.778 173.019 105.733 173.099 105.767C173.149 105.789 174.274 106.288 174.598 107.581C174.623 107.672 174.573 107.768 174.494 107.791C174.479 107.791 174.469 107.797 174.454 107.797V107.802Z" fill="#FF7972"/>
<path d="M173.423 107.235C173.393 107.235 173.368 107.224 173.343 107.207C173.273 107.156 173.253 107.048 173.298 106.969C173.308 106.957 173.487 106.64 173.866 106.447C173.941 106.407 174.03 106.447 174.065 106.532C174.1 106.617 174.065 106.719 173.99 106.759C173.697 106.906 173.557 107.15 173.552 107.15C173.522 107.201 173.472 107.23 173.423 107.23V107.235Z" fill="#FF7972"/>
<path d="M184.6 105.194C184.6 105.194 185.586 103.702 186.313 104.933C187.045 106.169 186.009 109.815 184.222 108.925L184.6 105.194Z" fill="#FDA084"/>
<path d="M184.615 107.802C184.68 107.802 184.74 107.751 184.76 107.678C185.039 106.549 186.059 106.096 186.074 106.09C186.154 106.056 186.194 105.954 186.164 105.869C186.134 105.778 186.049 105.733 185.97 105.767C185.92 105.789 184.795 106.288 184.471 107.581C184.446 107.672 184.496 107.768 184.575 107.791C184.59 107.791 184.605 107.797 184.615 107.797V107.802Z" fill="#FF7972"/>
<path d="M185.651 107.235C185.681 107.235 185.706 107.224 185.731 107.207C185.8 107.156 185.82 107.048 185.775 106.969C185.765 106.957 185.586 106.64 185.208 106.447C185.133 106.407 185.043 106.447 185.008 106.532C184.974 106.617 185.008 106.719 185.083 106.759C185.377 106.906 185.521 107.15 185.521 107.15C185.551 107.201 185.601 107.23 185.651 107.23V107.235Z" fill="#FF7972"/>
<path d="M181.957 112.021V115.651C181.957 115.651 181.006 117.499 179.721 117.624C178.437 117.749 177.296 116.036 177.296 116.036V112.282L181.952 112.027L181.957 112.021Z" fill="#FFC0AD"/>
<path d="M181.957 112.021V113.632C181.096 114.721 179.562 114.993 177.301 114.613V112.277L181.957 112.021Z" fill="#FDA084"/>
<path d="M173.941 105.08C173.99 105.851 174.07 106.662 174.199 107.467C174.628 110.144 175.588 112.769 177.66 113.614C182.35 115.525 184.028 110.938 184.7 108.267C184.774 107.972 184.839 107.643 184.899 107.286C185.003 106.651 185.088 105.936 185.153 105.222C185.228 104.354 185.282 103.475 185.312 102.704C185.382 101.077 184.525 99.5855 183.191 99.0015C181.269 98.1566 178.342 97.4931 175.574 99.285C174.548 99.9428 173.911 101.168 173.886 102.506C173.876 103.232 173.886 104.122 173.941 105.08Z" fill="#FFC0AD"/>
<path d="M173.941 105.081C173.99 105.852 174.07 106.663 174.199 107.468C174.628 110.144 175.589 112.77 177.66 113.615C182.35 115.526 184.028 110.938 184.7 108.267C184.774 107.972 184.839 107.644 184.899 107.286C185.003 106.651 185.088 105.937 185.153 105.222H184.466C184.321 105.721 183.56 108.749 183.311 109.186C182.778 107.729 180.069 108.698 180.069 108.698H180.055C179.89 108.761 179.721 108.795 179.552 108.795C179.382 108.795 179.203 108.761 179.034 108.698C179.034 108.698 176.355 107.689 175.803 109.078C175.559 108.647 174.677 105.557 174.518 105.228L173.936 105.081H173.941ZM179.547 109.356C182.609 108.885 182.126 110.762 182.126 110.762C181.787 111.114 181.474 111.375 181.269 111.505C180.602 111.93 179.94 112.089 179.462 112.067C178.994 112.044 178.865 112.152 177.675 111.42C177.466 111.29 177.251 111.103 177.047 110.876C176.998 110.507 176.48 108.755 179.547 109.356Z" fill="#2B2B2B"/>
<path d="M177.52 105.67C177.52 106.056 177.346 106.374 177.127 106.374C176.908 106.374 176.733 106.062 176.733 105.67C176.733 105.279 176.908 104.967 177.127 104.967C177.346 104.967 177.52 105.279 177.52 105.67Z" fill="#2B2B2B"/>
<path d="M182.136 105.654C182.136 106.039 181.961 106.357 181.742 106.357C181.523 106.357 181.349 106.045 181.349 105.654C181.349 105.263 181.523 104.951 181.742 104.951C181.961 104.951 182.136 105.263 182.136 105.654Z" fill="#2B2B2B"/>
<path d="M175.444 103.952C175.444 103.952 176.729 102.84 177.974 103.033L178.034 103.77C178.034 103.77 176.365 104.133 175.633 104.774C175.494 104.525 175.414 104.258 175.439 103.946L175.444 103.952Z" fill="#2B2B2B"/>
<path d="M183.45 103.952C183.45 103.952 182.166 102.84 180.921 103.033L180.861 103.77C180.861 103.77 182.529 104.133 183.261 104.774C183.401 104.525 183.48 104.258 183.455 103.946L183.45 103.952Z" fill="#2B2B2B"/>
<path d="M179.587 108.381C179.84 108.381 180.094 108.268 180.134 108.251C180.214 108.217 180.249 108.115 180.219 108.024C180.189 107.933 180.099 107.894 180.02 107.928C179.885 107.99 179.557 108.092 179.412 107.996C179.387 107.979 179.347 107.939 179.338 107.837C179.283 107.236 179.427 105.217 179.427 105.2C179.432 105.104 179.372 105.024 179.288 105.013C179.203 105.007 179.133 105.075 179.123 105.172C179.118 105.257 178.974 107.242 179.034 107.877C179.054 108.115 179.163 108.24 179.253 108.296C179.347 108.364 179.467 108.387 179.582 108.387L179.587 108.381Z" fill="#FDA084"/>
<path d="M179.383 109.645C178.252 109.645 178.182 111.584 179.313 111.652C179.353 111.652 179.397 111.652 179.442 111.652C179.487 111.652 179.527 111.652 179.572 111.652C180.707 111.59 180.642 109.645 179.507 109.645H179.388H179.383Z" fill="white"/>
<path d="M185.153 105.228H184.466C184.541 104.445 184.65 103.062 184.082 102.863C182.295 102.24 184.61 100.799 183.804 100.085C182.997 99.3648 180.991 99.6766 179.592 99.6199C178.188 99.5689 175.932 99.5916 175.379 99.7333C174.832 99.8751 175.131 100.913 175.335 101.718C175.539 102.523 174.663 103.408 174.513 104.241C174.473 104.48 174.478 104.837 174.513 105.222H173.941C173.871 104.207 173.861 103.266 173.876 102.501C173.901 101.162 174.538 99.9375 175.564 99.2797C178.332 97.4935 181.259 98.157 183.181 99.0019C184.516 99.5859 185.372 101.077 185.302 102.705C185.272 103.476 185.218 104.355 185.143 105.222L185.153 105.228Z" fill="#2B2B2B"/>
<path d="M216.415 165.527C215.563 169.304 213.189 172.173 209.539 173.818C208.573 174.254 207.642 174.549 206.84 174.748C206.87 174.702 206.895 174.663 206.925 174.617C207.493 173.727 207.976 172.763 208.359 171.737C210.764 170.744 213.502 168.777 214.368 164.932C215.2 161.229 213.861 155.695 210.943 150.824C208.633 146.968 203.39 140.305 194.224 139.012C186.223 137.884 181.025 139.268 176.435 140.492C172.536 141.53 168.857 142.511 164.351 141.609C161.04 140.952 158.501 139.993 156.261 139.148C152.138 137.595 149.415 136.568 145.088 138.587C137.794 141.989 134.543 156.097 134.508 156.239L132.457 155.644C132.596 155.014 136.002 140.22 144.282 136.359C149.33 134.005 152.681 135.264 156.918 136.863C159.089 137.686 161.553 138.61 164.705 139.239C168.787 140.056 172.103 139.171 175.942 138.145C180.702 136.875 186.094 135.44 194.473 136.619C198.386 137.17 202.031 138.701 205.312 141.162C208.165 143.311 210.714 146.174 212.681 149.457C215.972 154.952 217.401 161.11 216.405 165.522L216.415 165.527Z" fill="#174D46"/>
<path d="M114.428 178.53L119.173 161.445C121.195 154.164 128.016 150.132 134.404 152.435C140.791 154.737 144.336 162.505 142.315 169.78L137.57 186.866C127.956 183.401 124.077 182.006 114.428 178.524V178.53Z" fill="#FD5664"/>
<path d="M151.675 138.043C151.675 138.043 152.088 136.966 152.905 135.514C153.323 134.777 154.294 134.42 154.398 135.298C154.483 135.996 154.045 136.523 153.955 137.204C153.955 137.204 154.169 136.818 154.647 135.809C155.081 134.902 155.673 134.97 155.758 135.656C155.842 136.308 155.673 136.279 155.534 136.773C155.344 137.425 155.076 138.247 155.076 138.247C155.076 138.247 155.28 137.3 155.987 136.211C156.31 135.712 156.629 135.162 157.112 135.934C157.351 136.319 157.037 137.374 156.778 138.502C156.778 138.502 157.296 136.994 157.958 136.603C158.481 136.297 158.75 136.563 158.546 137.397C158.282 138.468 158.118 138.763 157.919 139.398C157.719 140.033 156.987 140.941 156.41 140.731C155.832 140.521 155.703 140.062 155.31 140.028C154.916 139.994 154.279 140.033 154.01 139.755C153.741 139.478 153.462 139.415 153.004 139.398C152.556 139.381 151.65 138.718 151.675 138.037V138.043Z" fill="#FFC0AD"/>
<path d="M192.76 139.092C192.76 139.092 193.019 137.958 193.637 136.382C193.95 135.582 194.742 135.004 194.966 135.86C195.145 136.535 194.901 137.181 194.906 137.867C194.906 137.867 195.065 137.448 195.404 136.37C195.708 135.395 196.3 135.361 196.484 136.024C196.654 136.654 196.484 136.654 196.415 137.17C196.315 137.85 196.161 138.706 196.161 138.706C196.161 138.706 196.235 137.737 196.788 136.535C197.042 135.985 197.281 135.384 197.859 136.064C198.147 136.404 197.978 137.499 197.874 138.661C197.874 138.661 197.993 137.278 198.595 136.779C199.073 136.382 199.561 136.404 199.472 137.26C199.357 138.366 199.233 138.689 199.123 139.353C199.014 140.016 198.411 141.043 197.814 140.935C197.211 140.827 197.027 140.396 196.629 140.43C196.235 140.47 195.613 140.617 195.309 140.391C195.006 140.164 194.722 140.152 194.269 140.215C193.821 140.277 192.835 139.778 192.77 139.103L192.76 139.092Z" fill="#FFC0AD"/>
<path d="M112.083 195.048C112.083 195.518 111.919 195.944 111.645 196.25C111.376 196.556 111.003 196.749 110.59 196.749H104.64V193.347H110.59C111.416 193.347 112.083 194.107 112.083 195.048Z" fill="#174D46"/>
<path d="M112.083 207.143C112.083 207.614 111.919 208.039 111.645 208.345C111.376 208.651 111.003 208.844 110.59 208.844H104.64V205.442H110.59C111.416 205.442 112.083 206.202 112.083 207.143Z" fill="#174D46"/>
<path d="M107.354 193.347H104.64V196.749H107.354V193.347Z" fill="#01305A"/>
<path d="M107.354 205.442H104.64V208.844H107.354V205.442Z" fill="#01305A"/>
<path d="M81.0254 199.102L80.9457 201.796C56.2856 200.809 37.1569 198.762 24.1024 195.706C12.905 193.086 5.89485 189.718 2.66359 185.414C1.00564 183.202 0.313585 180.685 0.612315 177.94C1.1102 173.308 4.72483 169.894 11.3716 167.75C11.4711 168.658 11.6404 169.542 11.8794 170.393C7.41838 171.856 3.3905 174.277 2.96232 178.275C2.74823 180.271 3.24114 182.034 4.46593 183.673C7.29888 187.455 14.0651 190.614 24.5804 193.075C37.5104 196.103 56.4997 198.133 81.0304 199.108L81.0254 199.102Z" fill="#174D46"/>
<path d="M104.64 214.917H88.9018C82.2003 214.917 76.7634 208.731 76.7634 201.093C76.7634 193.46 82.1953 187.268 88.9018 187.268H104.64V214.912V214.917Z" fill="#FD5664"/>
<path d="M212.591 92.8727V102.042C212.591 103.255 211.73 104.236 210.664 104.236H196.046L191.635 106.039C191.182 106.227 190.749 105.716 190.923 105.206L192.591 100.295V92.8727C192.591 91.6592 193.452 90.6782 194.518 90.6782H210.659C211.725 90.6782 212.586 91.6592 212.586 92.8727H212.591Z" fill="#FD6E7A"/>
<g style="mix-blend-mode:screen">
<path d="M198.501 99.3024C199.271 99.3024 199.895 98.5916 199.895 97.7147C199.895 96.8378 199.271 96.127 198.501 96.127C197.731 96.127 197.107 96.8378 197.107 97.7147C197.107 98.5916 197.731 99.3024 198.501 99.3024Z" fill="#FD6E7A"/>
<path d="M202.913 99.3024C203.683 99.3024 204.307 98.5916 204.307 97.7147C204.307 96.8378 203.683 96.127 202.913 96.127C202.143 96.127 201.518 96.8378 201.518 97.7147C201.518 98.5916 202.143 99.3024 202.913 99.3024Z" fill="#FD6E7A"/>
<path d="M207.329 99.3024C208.099 99.3024 208.723 98.5916 208.723 97.7147C208.723 96.8378 208.099 96.127 207.329 96.127C206.559 96.127 205.934 96.8378 205.934 97.7147C205.934 98.5916 206.559 99.3024 207.329 99.3024Z" fill="#FD6E7A"/>
</g>
<path d="M138.78 37.0748C138.78 35.0051 140.259 33.3267 142.071 33.3267C143.883 33.3267 145.362 35.0108 145.362 37.0748C145.362 39.1389 143.883 40.823 142.071 40.823C140.259 40.823 138.78 39.1389 138.78 37.0748ZM139.811 37.0748C139.811 38.4924 140.826 39.6492 142.071 39.6492C143.316 39.6492 144.331 38.4924 144.331 37.0748C144.331 35.6572 143.316 34.5004 142.071 34.5004C140.826 34.5004 139.811 35.6572 139.811 37.0748Z" fill="#FF7C78"/>
<path d="M127.777 21.0157C127.777 18.946 129.256 17.2676 131.068 17.2676C132.88 17.2676 134.359 18.9517 134.359 21.0157C134.359 23.0798 132.88 24.7639 131.068 24.7639C129.256 24.7639 127.777 23.0798 127.777 21.0157ZM128.812 21.0157C128.812 22.4334 129.828 23.5901 131.073 23.5901C132.318 23.5901 133.333 22.4334 133.333 21.0157C133.333 19.5981 132.318 18.4414 131.073 18.4414C129.828 18.4414 128.812 19.5981 128.812 21.0157Z" fill="#FF7C78"/>
<path d="M128.812 38.9574C129.096 38.9574 129.33 38.6965 129.33 38.3677V35.7763C129.33 35.453 129.101 35.1865 128.812 35.1865C128.524 35.1865 128.294 35.4474 128.294 35.7763V38.3677C128.294 38.6909 128.524 38.9574 128.812 38.9574Z" fill="#278276"/>
<path d="M128.812 43.494C129.096 43.494 129.33 43.2332 129.33 42.9043V40.3129C129.33 39.9897 129.101 39.7231 128.812 39.7231C128.524 39.7231 128.294 39.984 128.294 40.3129V42.9043C128.294 43.2275 128.524 43.494 128.812 43.494Z" fill="#278276"/>
<path d="M125.616 39.9324H127.663C127.947 39.9324 128.181 39.6715 128.181 39.3427C128.181 39.0138 127.952 38.7529 127.663 38.7529H125.616C125.332 38.7529 125.098 39.0138 125.098 39.3427C125.098 39.6715 125.327 39.9324 125.616 39.9324Z" fill="#278276"/>
<path d="M129.963 39.9324H132.01C132.293 39.9324 132.527 39.6715 132.527 39.3427C132.527 39.0138 132.298 38.7529 132.01 38.7529H129.963C129.679 38.7529 129.445 39.0138 129.445 39.3427C129.445 39.6715 129.674 39.9324 129.963 39.9324Z" fill="#278276"/>
<path d="M142.708 21.6849C142.992 21.6849 143.226 21.4241 143.226 21.0952V18.5038C143.226 18.1806 142.997 17.9141 142.708 17.9141C142.419 17.9141 142.19 18.1749 142.19 18.5038V21.0952C142.19 21.4184 142.419 21.6849 142.708 21.6849Z" fill="#174D46"/>
<path d="M142.708 26.2215C142.992 26.2215 143.226 25.9607 143.226 25.6318V23.0404C143.226 22.7172 142.997 22.4507 142.708 22.4507C142.419 22.4507 142.19 22.7115 142.19 23.0404V25.6318C142.19 25.955 142.419 26.2215 142.708 26.2215Z" fill="#174D46"/>
<path d="M139.512 22.6546H141.559C141.842 22.6546 142.076 22.3937 142.076 22.0648C142.076 21.7359 141.847 21.4751 141.559 21.4751H139.512C139.228 21.4751 138.994 21.7359 138.994 22.0648C138.994 22.3937 139.223 22.6546 139.512 22.6546Z" fill="#174D46"/>
<path d="M143.858 22.6546H145.905C146.189 22.6546 146.423 22.3937 146.423 22.0648C146.423 21.7359 146.194 21.4751 145.905 21.4751H143.858C143.575 21.4751 143.341 21.7359 143.341 22.0648C143.341 22.3937 143.57 22.6546 143.858 22.6546Z" fill="#174D46"/>
<path d="M43.6443 11.3937C43.6443 9.32396 45.123 7.64551 46.9353 7.64551C48.7476 7.64551 50.2263 9.32963 50.2263 11.3937C50.2263 13.4577 48.7476 15.1418 46.9353 15.1418C45.123 15.1418 43.6443 13.4577 43.6443 11.3937ZM44.6749 11.3937C44.6749 12.8113 45.6906 13.9681 46.9353 13.9681C48.18 13.9681 49.1957 12.8113 49.1957 11.3937C49.1957 9.97607 48.18 8.81929 46.9353 8.81929C45.6906 8.81929 44.6749 9.97607 44.6749 11.3937Z" fill="#FF7C78"/>
<path d="M30.9834 18.4479C30.9834 16.3782 32.4621 14.6997 34.2744 14.6997C36.0867 14.6997 37.5654 16.3838 37.5654 18.4479C37.5654 20.5119 36.0867 22.196 34.2744 22.196C32.4621 22.196 30.9834 20.5119 30.9834 18.4479ZM32.019 18.4479C32.019 19.8655 33.0347 21.0223 34.2794 21.0223C35.5241 21.0223 36.5398 19.8712 36.5398 18.4479C36.5398 17.0246 35.5241 15.8735 34.2794 15.8735C33.0347 15.8735 32.019 17.0303 32.019 18.4479Z" fill="#278276"/>
<path d="M29.0914 28.535C29.3753 28.535 29.6093 28.2742 29.6093 27.9453V25.3539C29.6093 25.0307 29.3802 24.7642 29.0914 24.7642C28.8026 24.7642 28.5735 25.025 28.5735 25.3539V27.9453C28.5735 28.2685 28.8026 28.535 29.0914 28.535Z" fill="#FF7C78"/>
<path d="M29.0914 33.0711C29.3753 33.0711 29.6093 32.8103 29.6093 32.4814V29.89C29.6093 29.5668 29.3802 29.3003 29.0914 29.3003C28.8026 29.3003 28.5735 29.5611 28.5735 29.89V32.4814C28.5735 32.8046 28.8026 33.0711 29.0914 33.0711Z" fill="#FF7C78"/>
<path d="M25.8951 29.5046H27.9419C28.2257 29.5046 28.4598 29.2438 28.4598 28.9149C28.4598 28.586 28.2307 28.3252 27.9419 28.3252H25.8951C25.6113 28.3252 25.3772 28.586 25.3772 28.9149C25.3772 29.2438 25.6063 29.5046 25.8951 29.5046Z" fill="#FF7C78"/>
<path d="M30.2415 29.5046H32.2883C32.5722 29.5046 32.8062 29.2438 32.8062 28.9149C32.8062 28.586 32.5771 28.3252 32.2883 28.3252H30.2415C29.9577 28.3252 29.7236 28.586 29.7236 28.9149C29.7236 29.2438 29.9527 29.5046 30.2415 29.5046Z" fill="#FF7C78"/>
<path d="M38.3468 4.28306C38.6306 4.28306 38.8647 4.02222 38.8647 3.69333V1.10193C38.8647 0.778718 38.6356 0.512207 38.3468 0.512207C38.0579 0.512207 37.8289 0.773048 37.8289 1.10193V3.69333C37.8289 4.01655 38.0579 4.28306 38.3468 4.28306Z" fill="#174D46"/>
<path d="M38.3468 8.81919C38.6306 8.81919 38.8647 8.55835 38.8647 8.22947V5.63807C38.8647 5.31485 38.6356 5.04834 38.3468 5.04834C38.0579 5.04834 37.8289 5.30918 37.8289 5.63807V8.22947C37.8289 8.55268 38.0579 8.81919 38.3468 8.81919Z" fill="#174D46"/>
<path d="M35.1505 5.25221H37.1972C37.4811 5.25221 37.7152 4.99137 37.7152 4.66248C37.7152 4.3336 37.4861 4.07275 37.1972 4.07275H35.1505C34.8666 4.07275 34.6326 4.3336 34.6326 4.66248C34.6326 4.99137 34.8616 5.25221 35.1505 5.25221Z" fill="#174D46"/>
<path d="M39.4972 5.25221H41.5439C41.8278 5.25221 42.0618 4.99137 42.0618 4.66248C42.0618 4.3336 41.8328 4.07275 41.5439 4.07275H39.4972C39.2133 4.07275 38.9792 4.3336 38.9792 4.66248C38.9792 4.99137 39.2083 5.25221 39.4972 5.25221Z" fill="#174D46"/>
</svg>
