<svg width="17" height="17" viewBox="0 0 17 17" fill="none" xmlns="http://www.w3.org/2000/svg">
<g id="ant-design:close-circle-outlined" clip-path="url(#clip0_62_54835)">
<path id="Vector" d="M11.2261 5.51487C11.2261 5.43629 11.1618 5.37201 11.0832 5.37201L9.90463 5.37737L8.12963 7.49344L6.35642 5.37915L5.17606 5.3738C5.09749 5.3738 5.0332 5.4363 5.0332 5.51665C5.0332 5.55058 5.0457 5.58272 5.06713 5.60951L7.39034 8.37737L5.06713 11.1434C5.04555 11.1696 5.03358 11.2024 5.0332 11.2363C5.0332 11.3149 5.09749 11.3792 5.17606 11.3792L6.35642 11.3738L8.12963 9.25772L9.90284 11.372L11.0814 11.3774C11.16 11.3774 11.2243 11.3149 11.2243 11.2345C11.2243 11.2006 11.2118 11.1684 11.1903 11.1417L8.8707 8.37558L11.1939 5.60772C11.2153 5.58272 11.2261 5.54879 11.2261 5.51487Z" fill="#E43A44"/>
<path id="Vector_2" d="M8.12891 0.339844C3.71105 0.339844 0.128906 3.92199 0.128906 8.33984C0.128906 12.7577 3.71105 16.3398 8.12891 16.3398C12.5468 16.3398 16.1289 12.7577 16.1289 8.33984C16.1289 3.92199 12.5468 0.339844 8.12891 0.339844ZM8.12891 14.9827C4.46105 14.9827 1.48605 12.0077 1.48605 8.33984C1.48605 4.67199 4.46105 1.69699 8.12891 1.69699C11.7968 1.69699 14.7718 4.67199 14.7718 8.33984C14.7718 12.0077 11.7968 14.9827 8.12891 14.9827Z" fill="#E43A44"/>
</g>
<defs>
<clipPath id="clip0_62_54835">
<rect width="16" height="16" fill="white" transform="translate(0.128906 0.339844)"/>
</clipPath>
</defs>
</svg>
