<svg width="26" height="26" viewBox="0 0 26 26" fill="none" xmlns="http://www.w3.org/2000/svg">
<g id="icn stop .icn-sm" clip-path="url(#clip0_62_54838)">
<path id="Vector" d="M12.629 0.365173C5.74005 0.365173 0.154297 5.95093 0.154297 12.8398C0.154297 19.7287 5.74005 25.3145 12.629 25.3145C19.5179 25.3145 25.1036 19.7287 25.1036 12.8398C25.1036 5.95093 19.5179 0.365173 12.629 0.365173ZM12.629 23.1983C6.90955 23.1983 2.27053 18.5592 2.27053 12.8398C2.27053 10.3616 3.14209 8.08387 4.59561 6.30178L19.167 20.8732C17.3849 22.3267 15.1072 23.1983 12.629 23.1983ZM20.6623 19.3779L6.0909 4.80649C7.87299 3.35297 10.1507 2.48141 12.629 2.48141C18.3484 2.48141 22.9874 7.12042 22.9874 12.8398C22.9874 15.3181 22.1158 17.5958 20.6623 19.3779Z" fill="#E0232E"/>
</g>
<defs>
<clipPath id="clip0_62_54838">
<rect width="25" height="25" fill="white" transform="translate(0.128906 0.339844)"/>
</clipPath>
</defs>
</svg>
