<svg width="29" height="27" viewBox="0 0 29 27" fill="none" xmlns="http://www.w3.org/2000/svg">
<g id="Frame" clip-path="url(#clip0_62_54846)">
<path id="Vector" fill-rule="evenodd" clip-rule="evenodd" d="M27.8362 2.63198C27.9293 2.72487 28.0032 2.83523 28.0536 2.95672C28.1041 3.07821 28.13 3.20845 28.13 3.33998C28.13 3.47152 28.1041 3.60176 28.0536 3.72325C28.0032 3.84474 27.9293 3.95509 27.8362 4.04798L13.8362 18.048C13.7433 18.1411 13.633 18.215 13.5115 18.2654C13.39 18.3158 13.2598 18.3418 13.1282 18.3418C12.9967 18.3418 12.8664 18.3158 12.7449 18.2654C12.6235 18.215 12.5131 18.1411 12.4202 18.048L6.42022 12.048C6.32724 11.955 6.25349 11.8446 6.20317 11.7232C6.15285 11.6017 6.12695 11.4715 6.12695 11.34C6.12695 11.2085 6.15285 11.0783 6.20317 10.9568C6.25349 10.8353 6.32724 10.725 6.42022 10.632C6.51319 10.539 6.62357 10.4653 6.74505 10.4149C6.86653 10.3646 6.99673 10.3387 7.12822 10.3387C7.2597 10.3387 7.38991 10.3646 7.51138 10.4149C7.63286 10.4653 7.74324 10.539 7.83622 10.632L13.1282 15.926L26.4202 2.63198C26.5131 2.53886 26.6235 2.46497 26.7449 2.41456C26.8664 2.36415 26.9967 2.3382 27.1282 2.3382C27.2598 2.3382 27.39 2.36415 27.5115 2.41456C27.633 2.46497 27.7433 2.53886 27.8362 2.63198Z" fill="#2DC071"/>
<path id="Vector_2" fill-rule="evenodd" clip-rule="evenodd" d="M13.1289 2.33995C10.9533 2.33995 8.82659 2.98508 7.01765 4.19378C5.20871 5.40248 3.79881 7.12044 2.96625 9.13043C2.13369 11.1404 1.91585 13.3521 2.34029 15.4859C2.76472 17.6197 3.81237 19.5797 5.35075 21.1181C6.88913 22.6565 8.84914 23.7041 10.9829 24.1286C13.1167 24.553 15.3285 24.3352 17.3384 23.5026C19.3484 22.6701 21.0664 21.2602 22.2751 19.4512C23.4838 17.6423 24.1289 15.5155 24.1289 13.3399C24.1289 13.0747 24.2343 12.8204 24.4218 12.6328C24.6094 12.4453 24.8637 12.3399 25.1289 12.3399C25.3941 12.3399 25.6485 12.4453 25.836 12.6328C26.0236 12.8204 26.1289 13.0747 26.1289 13.3399C26.1286 16.2016 25.184 18.9832 23.4416 21.2533C21.6993 23.5235 19.2566 25.1552 16.4924 25.8956C13.7281 26.636 10.7968 26.4436 8.15308 25.3483C5.50932 24.253 3.30085 22.3159 1.87018 19.8376C0.4395 17.3592 -0.133437 14.478 0.240223 11.6408C0.613883 8.80364 1.91326 6.16904 3.93683 4.14559C5.96041 2.12215 8.59509 0.822943 11.4323 0.449465C14.2695 0.075987 17.1506 0.649108 19.6289 2.07994C19.7484 2.14246 19.8541 2.2285 19.9394 2.3329C20.0248 2.43729 20.0882 2.55788 20.1258 2.68741C20.1634 2.81694 20.1744 2.95273 20.1581 3.08661C20.1418 3.2205 20.0987 3.34971 20.0312 3.46647C19.9637 3.58324 19.8733 3.68514 19.7654 3.76606C19.6575 3.84698 19.5343 3.90523 19.4033 3.93732C19.2723 3.9694 19.1362 3.97466 19.0031 3.95277C18.87 3.93088 18.7427 3.8823 18.6289 3.80995C16.9574 2.84333 15.0598 2.33617 13.1289 2.33995Z" fill="#2DC071"/>
</g>
<defs>
<clipPath id="clip0_62_54846">
<rect width="28.002" height="26" fill="white" transform="translate(0.128906 0.338257)"/>
</clipPath>
</defs>
</svg>
